<?xml version="1.0" encoding="UTF-8"?>
<svg version="1.1" xmlns="http://www.w3.org/2000/svg" width="1280" height="1131">
<path d="M0 0 C0.74459473 0.53206055 1.48918945 1.06412109 2.25634766 1.61230469 C13.24278296 9.5010523 23.8148312 17.78478587 34.17382812 26.47802734 C36.67247365 28.56045465 39.21266919 30.59000202 41.75 32.625 C46.41594998 36.43161977 50.84483743 40.45899501 55.23535156 44.57666016 C58.02676146 47.1939418 60.85226851 49.75613278 63.74365234 52.26293945 C76.40517684 63.32240015 88.33687934 75.17434638 100.20336914 87.07299805 C102.58820255 89.46326107 104.97843105 91.84803758 107.36914062 94.23242188 C108.91438372 95.77832482 110.45931709 97.32453743 112.00390625 98.87109375 C112.70504044 99.5702037 113.40617462 100.26931366 114.1285553 100.98960876 C118.06924366 104.94887646 121.82718201 109.01218566 125.47691345 113.24110413 C127.24607027 115.28416769 129.07506702 117.2605464 130.9375 119.21875 C131.93910156 120.27642578 131.93910156 120.27642578 132.9609375 121.35546875 C133.63382812 122.06316406 134.30671875 122.77085937 135 123.5 C140.12945078 128.8947672 145.14364516 134.35758652 150 140 C150.48243164 140.56025879 150.96486328 141.12051758 151.46191406 141.69775391 C152.85219516 143.31714317 154.23908582 144.93937247 155.625 146.5625 C159.40456574 150.9835489 163.20213204 155.38787 167.02197266 159.77416992 C172.8062969 166.41910529 178.45959075 173.14928912 184 180 C185.43682524 181.75055405 186.87434173 183.50054093 188.3125 185.25 C196.71003986 195.52497945 204.97165373 205.88962206 213.00292969 216.45385742 C216.37912953 220.89250828 219.79235412 225.29907499 223.23510742 229.6862793 C230.18245867 238.54802032 236.84582812 247.58079917 243.38671875 256.74560547 C245.01040792 259.014544 246.643918 261.27604645 248.28125 263.53515625 C248.83095459 264.29376953 249.38065918 265.05238281 249.94702148 265.83398438 C250.95911114 267.23013888 251.97158312 268.62601639 252.98461914 270.02148438 C254.6637415 272.34248341 256.3334255 274.66996894 258 277 C258.41095917 277.57444855 258.82191833 278.14889709 259.24533081 278.74075317 C267.36879801 290.11692819 275.20699828 301.66655119 282.9375 313.3125 C284.09420952 315.0523466 285.25094806 316.7921739 286.40771484 318.53198242 C289.61006607 323.35140034 292.80627399 328.17486329 296 333 C296.72493652 334.09441406 297.44987305 335.18882812 298.19677734 336.31640625 C360 429.82765839 360 429.82765839 360 445 C360.66 445 361.32 445 362 445 C362.26844727 444.13552246 362.53689453 443.27104492 362.81347656 442.38037109 C364.86985698 436.52180253 367.88846444 431.12323176 370.75 425.625 C371.08091644 424.98639038 371.41183289 424.34778076 371.7527771 423.68981934 C377.94339267 411.7627511 384.56922825 400.12529439 391.45996094 388.58789062 C392.84541268 386.25976944 394.21314561 383.92281079 395.5703125 381.578125 C407.02356718 361.80418991 419.44857986 342.69165972 432.125 323.6875 C432.71351746 322.80506622 433.30203491 321.92263245 433.90838623 321.01345825 C440.21298668 311.56862906 446.55606629 302.15059374 452.9609375 292.7734375 C453.47294708 292.02297653 453.98495667 291.27251556 454.51248169 290.49931335 C459.66700133 282.97362219 465.01720921 275.59269199 470.38818359 268.22070312 C471.98296514 266.02347003 473.56568875 263.81808273 475.14453125 261.609375 C483.5302313 249.89247603 492.22307201 238.42584229 501 227 C501.95077534 225.75800729 502.90132596 224.51584249 503.8515625 223.2734375 C512.71613941 211.6967181 521.7295678 200.25457146 531 189 C532.45844341 187.20842294 533.91677517 185.41675498 535.375 183.625 C539.16871963 178.98529411 543.0283286 174.4056355 546.91137695 169.84082031 C549.84237261 166.388975 552.71696471 162.89804369 555.5625 159.375 C559.43579272 154.61479947 563.50759992 150.07195216 567.66015625 145.5546875 C569.65834848 143.37302185 571.62148889 141.16988691 573.5625 138.9375 C580.70097344 130.73407947 588.04832268 122.71483345 595.41703796 114.71839905 C596.44073118 113.60711942 597.46366176 112.49513656 598.485672 111.38230896 C607.75191616 101.30496295 617.30478982 91.53877787 626.99755859 81.87207031 C629.3966873 79.47836169 631.7903427 77.07927119 634.18359375 74.6796875 C635.73405405 73.12988718 637.28482409 71.58039665 638.8359375 70.03125 C639.53818451 69.32697876 640.24043152 68.62270752 640.96395874 67.89709473 C644.91070913 63.96877636 648.95209907 60.21077885 653.17805481 56.58383179 C656.31167536 53.85974993 659.29931765 50.98066963 662.3125 48.125 C667.47929621 43.26646836 672.7361638 38.61932067 678.28125 34.19140625 C680.73620792 32.21262551 683.13638959 30.18155866 685.52563477 28.12426758 C741.70289863 -20.14650304 819.21767478 -68.91746557 896 -65 C918.13709004 -63.14478638 937.8406162 -54.51678228 953 -38 C967.37720873 -20.2241354 974.17056512 0.81869951 978 23 C978.12004395 23.68852051 978.24008789 24.37704102 978.36376953 25.08642578 C992.39268337 111.20430375 971.33781082 212.2357021 950 406 C949.84354004 406.98887207 949.68708008 407.97774414 949.52587891 408.99658203 C940.99955859 461.36450977 910.64452593 512.25917515 869 545 C867.55560547 546.16982422 867.55560547 546.16982422 866.08203125 547.36328125 C827.16882153 578.28670646 778.7875894 595.00360229 730 602 C728.48623779 602.22647217 728.48623779 602.22647217 726.94189453 602.45751953 C708.66926819 605.07758521 690.4899541 605.26546018 672.0625 605.25 C670.2978389 605.24897278 670.2978389 605.24897278 668.49752808 605.2479248 C655.9660001 605.22388434 643.48879773 605.10874017 631 604 C631.90202148 604.20979492 632.80404297 604.41958984 633.73339844 604.63574219 C703.10557432 620.94318489 785.13570094 648.07007371 825 712 C825.37753418 712.60150879 825.75506836 713.20301758 826.14404297 713.82275391 C844.82425125 744.04787917 849.46926278 779.11781832 841.39794922 813.56982422 C838.25154417 826.33692246 833.80807303 838.21829047 828 850 C827.65598145 850.70576172 827.31196289 851.41152344 826.95751953 852.13867188 C811.51825792 883.49224929 788.23342655 909.79746675 763.75 934.375 C762.91025635 935.2194165 762.0705127 936.06383301 761.20532227 936.93383789 C756.83836737 941.28957445 752.40260503 945.49588775 747.72460938 949.51611328 C745.56121711 951.37753715 743.47138302 953.31370441 741.375 955.25 C735.7255222 960.34577707 729.77148039 965.00249548 723.74951172 969.64453125 C722.10587542 970.91797093 720.47504329 972.20589608 718.84765625 973.5 C691.87715869 994.72268661 661.33718699 1012.20471627 628 1021 C627.23703613 1021.20882813 626.47407227 1021.41765625 625.68798828 1021.6328125 C602.85629603 1027.65393894 575.68299387 1027.57266751 553 1021 C552.34128906 1020.81808105 551.68257812 1020.63616211 551.00390625 1020.44873047 C526.26333658 1013.48577839 505.17335159 999.33302007 486.37890625 982.15625 C484.22489491 980.20384564 482.02972274 978.31722641 479.8125 976.4375 C476.51375127 973.56099111 473.65216266 970.47595247 470.828125 967.13671875 C468.8831658 964.86344379 466.85139345 962.68924351 464.8125 960.5 C448.79786269 942.67289529 435.69930559 921.84348984 424 901 C423.28408691 899.73639648 423.28408691 899.73639648 422.55371094 898.44726562 C399.95411965 858.38238714 383.79477812 815.8248821 368.59326172 772.52880859 C366.42055474 766.34358253 364.21253628 760.17107575 362 754 C361.34 754 360.68 754 360 754 C359.81811127 754.52140564 359.63622253 755.04281128 359.44882202 755.58001709 C333.59220741 829.64651266 306.10275085 904.70955952 253.37548828 964.44091797 C252.08532163 965.90329004 250.80593631 967.37515391 249.52734375 968.84765625 C245.60691338 973.30605305 241.60941165 977.42349217 237.0625 981.2421875 C235.63378727 982.4598404 234.23947446 983.71858479 232.875 985.0078125 C201.68305265 1014.40833044 163.71272788 1026.16880366 121.58055115 1025.28753662 C64.77793798 1023.54446793 12.93622389 984.89503278 -27.05078125 947.703125 C-29.21122276 945.69904837 -31.42656978 943.77295361 -33.6640625 941.85546875 C-38.52302144 937.61933529 -43.07251743 933.07793746 -47.6184082 928.51196289 C-49.06025221 927.06475615 -50.50737116 925.62297974 -51.95507812 924.18164062 C-57.18307882 918.95794963 -62.21918298 913.63615189 -67 908 C-67.52456787 907.39808838 -68.04913574 906.79617676 -68.58959961 906.17602539 C-102.10239926 867.65350106 -125.68550259 820.92885111 -123 769 C-120.12703221 732.01238139 -98.67800187 699.9056314 -71.53125 675.80859375 C-58.99371498 665.25365086 -45.29405127 655.99712671 -31 648 C-30.21544434 647.55720703 -29.43088867 647.11441406 -28.62255859 646.65820312 C8.77136571 625.76518085 49.55192227 613.83586881 91 604 C90.2260791 604.06928711 89.4521582 604.13857422 88.65478516 604.20996094 C75.57475176 605.23821367 62.48938833 605.24351991 49.375 605.25 C47.53452087 605.25101212 47.53452087 605.25101212 45.65686035 605.25204468 C27.57989374 605.23625294 9.88089797 604.87719398 -8 602 C-9.12567383 601.82307617 -10.25134766 601.64615234 -11.41113281 601.46386719 C-79.33971191 590.49909236 -145.38971465 560.79151324 -186.72753906 503.78662109 C-240.22257895 428.67597222 -238.67993374 328.42608263 -256.0390625 22.66015625 C-251.24315778 -4.83286812 -241.50500827 -32.75406699 -218.0625 -49.875 C-150.89171921 -93.41946515 -55.8079146 -39.92524439 0 0 Z " fill="#000000" transform="translate(279,85)"/>
</svg>
