<?xml version="1.0" encoding="utf-8"?>
<!-- Generator: Adobe Illustrator 16.0.0, SVG Export Plug-In . SVG Version: 6.00 Build 0)  -->
<!DOCTYPE svg PUBLIC "-//W3C//DTD SVG 1.1//EN" "http://www.w3.org/Graphics/SVG/1.1/DTD/svg11.dtd">
<svg version="1.1" id="Layer_2_copy" xmlns="http://www.w3.org/2000/svg" xmlns:xlink="http://www.w3.org/1999/xlink" x="0px"
	 y="0px" width="141.501px" height="138.467px" viewBox="0 0 141.501 138.467" enable-background="new 0 0 141.501 138.467"
	 xml:space="preserve">
<g id="Layer_3">
	<path opacity="0.3" d="M0,124.569v-15.903h2.961v13.277h4.442v2.626H0L0,124.569z M13.373,112.963l0.955,6.138h-2.03
		L13.373,112.963L13.373,112.963z M15.235,124.569h3.009l-3.176-15.903h-3.32l-3.199,15.903h2.77l0.573-3.127h2.818L15.235,124.569
		L15.235,124.569z M23.417,124.928c2.818,0,4.299-1.768,4.299-4.155v-1.935h-2.651v1.91c0,0.932-0.525,1.576-1.6,1.576
		c-1.075,0-1.624-0.645-1.624-1.528v-8.358c0-0.884,0.549-1.528,1.624-1.528c1.074,0,1.6,0.645,1.6,1.576v1.911h2.651v-1.935
		c0-2.388-1.48-4.155-4.299-4.155c-2.841,0-4.584,1.91-4.584,4.37v7.88C18.833,123.017,20.576,124.928,23.417,124.928
		L23.417,124.928z M34.625,112.247v2.269c0,0.86-0.406,1.267-1.17,1.267H31.95v-4.681h1.624
		C34.315,111.101,34.625,111.531,34.625,112.247L34.625,112.247z M36.344,124.665h1.791v-0.884
		c-0.358-0.382-0.573-0.883-0.573-1.623v-2.914c0-1.026-0.598-2.077-1.839-2.411c1.242-0.383,1.791-1.267,1.791-2.46v-2.245
		c0-2.221-1.456-3.462-3.629-3.462H28.99v15.903h2.96v-6.591h1.553c0.835,0,1.218,0.621,1.218,1.361v2.985
		C34.721,123.709,35.174,124.665,36.344,124.665L36.344,124.665z M44.838,112.462v8.311c0,0.932-0.55,1.552-1.529,1.552
		c-0.955,0-1.504-0.62-1.504-1.552v-8.311c0-0.932,0.549-1.553,1.504-1.553C44.289,110.91,44.838,111.531,44.838,112.462
		L44.838,112.462z M43.31,124.928c2.794,0,4.513-1.815,4.513-4.347v-7.929c0-2.507-1.719-4.322-4.513-4.322
		c-2.771,0-4.513,1.815-4.513,4.322v7.929C38.796,123.113,40.539,124.928,43.31,124.928L43.31,124.928z M53.514,124.928
		c2.627,0,4.395-1.84,4.395-4.395c0-2.149-1.337-3.583-3.224-4.991c-1.767-1.29-2.555-1.981-2.555-3.319
		c0-0.883,0.572-1.433,1.432-1.433c1.003,0,1.505,0.716,1.505,1.695v0.956h2.698v-1.027c0-2.364-1.671-4.084-4.179-4.084
		c-2.865,0-4.346,1.982-4.346,4.275c0,2.22,1.767,3.797,3.391,4.967c1.576,1.17,2.388,2.03,2.388,3.295
		c0,0.979-0.525,1.601-1.576,1.601c-1.075,0-1.624-0.646-1.624-1.815v-0.932h-2.722v1.1
		C49.097,123.304,50.792,124.928,53.514,124.928L53.514,124.928z M63.377,124.928c2.627,0,4.394-1.84,4.394-4.395
		c0-2.149-1.337-3.583-3.223-4.991c-1.768-1.29-2.556-1.981-2.556-3.319c0-0.883,0.573-1.433,1.433-1.433
		c1.003,0,1.505,0.716,1.505,1.695v0.956h2.698v-1.027c0-2.364-1.671-4.084-4.179-4.084c-2.865,0-4.346,1.982-4.346,4.275
		c0,2.22,1.768,3.797,3.391,4.967c1.576,1.17,2.388,2.03,2.388,3.295c0,0.979-0.525,1.601-1.576,1.601
		c-1.074,0-1.624-0.646-1.624-1.815v-0.932H58.96v1.1C58.96,123.304,60.656,124.928,63.377,124.928L63.377,124.928z M68.894,124.569
		h7.595v-2.65h-4.634V117.5h3.2v-2.34h-3.2v-3.94h4.634v-2.555h-7.595V124.569L68.894,124.569z M85.757,124.928
		c2.817,0,4.298-1.768,4.298-4.155v-1.935h-2.65v1.91c0,0.932-0.525,1.576-1.6,1.576c-1.075,0-1.624-0.645-1.624-1.528v-8.358
		c0-0.884,0.549-1.528,1.624-1.528c1.074,0,1.6,0.645,1.6,1.576v1.91h2.65v-1.934c0-2.389-1.48-4.156-4.298-4.156
		c-2.842,0-4.586,1.911-4.586,4.37v7.881C81.171,123.017,82.916,124.928,85.757,124.928L85.757,124.928z M95.361,112.963
		l0.954,6.138h-2.029L95.361,112.963L95.361,112.963z M97.223,124.569h3.009l-3.176-15.903h-3.319l-3.2,15.903h2.771l0.572-3.127
		h2.819L97.223,124.569L97.223,124.569z M108.256,124.569h2.292v-15.903h-2.675v9.433l-1.051-2.532l-2.937-6.9h-2.555v15.903h2.722
		v-9.313l1.123,2.531L108.256,124.569L108.256,124.569z M116.471,112.963l0.955,6.138h-2.03L116.471,112.963L116.471,112.963z
		 M118.333,124.569h3.009l-3.175-15.903h-3.32l-3.2,15.903h2.771l0.572-3.127h2.818L118.333,124.569L118.333,124.569z
		 M128.412,112.987v7.284c0,1.122-0.478,1.743-1.576,1.743h-1.408V111.22h1.408C127.934,111.22,128.412,111.841,128.412,112.987
		L128.412,112.987z M127.051,124.569c2.794,0,4.346-1.623,4.346-4.154v-7.451c0-2.508-1.552-4.298-4.346-4.298h-4.585v15.903
		H127.051L127.051,124.569z M136.63,112.963l0.955,6.138h-2.03L136.63,112.963L136.63,112.963z M138.492,124.569h3.01l-3.176-15.903
		h-3.319l-3.2,15.903h2.77l0.574-3.127h2.817L138.492,124.569L138.492,124.569z"/>
	<path fill="#CF202E" d="M0,123.941v-15.905h2.961v13.277h4.442v2.628H0L0,123.941z M13.373,112.334l0.955,6.138h-2.03
		L13.373,112.334L13.373,112.334z M15.235,123.941h3.009l-3.176-15.905h-3.319l-3.199,15.905h2.77l0.573-3.129h2.818L15.235,123.941
		L15.235,123.941z M23.417,124.298c2.818,0,4.299-1.767,4.299-4.154v-1.936h-2.651v1.911c0,0.932-0.525,1.576-1.6,1.576
		c-1.074,0-1.624-0.645-1.624-1.529v-8.357c0-0.884,0.549-1.528,1.624-1.528c1.075,0,1.6,0.645,1.6,1.576v1.91h2.651v-1.935
		c0-2.388-1.48-4.155-4.299-4.155c-2.841,0-4.584,1.911-4.584,4.37v7.881C18.833,122.387,20.576,124.298,23.417,124.298
		L23.417,124.298z M34.625,111.618v2.27c0,0.859-0.406,1.266-1.17,1.266H31.95v-4.682h1.624
		C34.314,110.471,34.625,110.902,34.625,111.618L34.625,111.618z M36.344,124.037h1.791v-0.885
		c-0.358-0.382-0.573-0.883-0.573-1.624v-2.913c0-1.026-0.597-2.077-1.839-2.412c1.242-0.382,1.791-1.266,1.791-2.459V111.5
		c0-2.222-1.456-3.464-3.629-3.464h-4.896v15.905h2.961v-6.592h1.552c0.836,0,1.218,0.621,1.218,1.361v2.985
		C34.721,123.081,35.174,124.037,36.344,124.037L36.344,124.037z M44.838,111.833v8.312c0,0.931-0.55,1.552-1.529,1.552
		c-0.955,0-1.505-0.621-1.505-1.552v-8.312c0-0.931,0.55-1.552,1.505-1.552C44.288,110.281,44.838,110.902,44.838,111.833
		L44.838,111.833z M43.31,124.298c2.794,0,4.513-1.814,4.513-4.346v-7.929c0-2.507-1.719-4.322-4.513-4.322
		c-2.771,0-4.513,1.815-4.513,4.322v7.929C38.796,122.484,40.539,124.298,43.31,124.298L43.31,124.298z M53.514,124.298
		c2.627,0,4.394-1.839,4.394-4.395c0-2.148-1.337-3.581-3.224-4.99c-1.767-1.29-2.555-1.981-2.555-3.319
		c0-0.884,0.573-1.434,1.433-1.434c1.003,0,1.505,0.717,1.505,1.696v0.955h2.698v-1.026c0-2.364-1.67-4.084-4.179-4.084
		c-2.865,0-4.346,1.982-4.346,4.274c0,2.222,1.768,3.797,3.391,4.967c1.576,1.17,2.388,2.03,2.388,3.296
		c0,0.979-0.525,1.6-1.576,1.6c-1.075,0-1.624-0.644-1.624-1.814v-0.932h-2.722v1.099C49.097,122.674,50.792,124.298,53.514,124.298
		L53.514,124.298z M63.378,124.298c2.626,0,4.393-1.839,4.393-4.395c0-2.148-1.337-3.581-3.223-4.99
		c-1.767-1.29-2.555-1.981-2.555-3.319c0-0.884,0.573-1.434,1.432-1.434c1.003,0,1.505,0.717,1.505,1.696v0.955h2.698v-1.026
		c0-2.364-1.671-4.084-4.179-4.084c-2.866,0-4.347,1.982-4.347,4.274c0,2.222,1.768,3.797,3.391,4.967
		c1.576,1.17,2.388,2.03,2.388,3.296c0,0.979-0.524,1.6-1.575,1.6c-1.075,0-1.624-0.644-1.624-1.814v-0.932H58.96v1.099
		C58.96,122.674,60.656,124.298,63.378,124.298L63.378,124.298z M68.894,123.941h7.594v-2.651h-4.633v-4.418h3.2v-2.34h-3.2v-3.94
		h4.633v-2.556h-7.594V123.941L68.894,123.941z M85.757,124.298c2.817,0,4.298-1.768,4.298-4.155v-1.935h-2.65v1.911
		c0,0.932-0.525,1.576-1.6,1.576c-1.075,0-1.624-0.645-1.624-1.529v-8.357c0-0.884,0.549-1.528,1.624-1.528
		c1.074,0,1.6,0.645,1.6,1.576v1.909h2.65v-1.934c0-2.388-1.48-4.155-4.298-4.155c-2.842,0-4.586,1.911-4.586,4.37v7.881
		C81.171,122.387,82.916,124.298,85.757,124.298L85.757,124.298z M95.361,112.334l0.955,6.137h-2.029L95.361,112.334L95.361,112.334
		z M97.223,123.94h3.009l-3.175-15.904h-3.32l-3.2,15.904h2.771l0.573-3.128h2.818L97.223,123.94L97.223,123.94z M108.255,123.94
		h2.293v-15.904h-2.674v9.433l-1.051-2.531l-2.938-6.901h-2.554v15.904h2.722v-9.313l1.123,2.531L108.255,123.94L108.255,123.94z
		 M116.471,112.334l0.955,6.137h-2.029L116.471,112.334L116.471,112.334z M118.334,123.94h3.008l-3.175-15.904h-3.32l-3.2,15.904
		h2.771l0.572-3.128h2.818L118.334,123.94L118.334,123.94z M128.412,112.359v7.282c0,1.123-0.477,1.744-1.576,1.744h-1.408v-10.794
		h1.408C127.935,110.591,128.412,111.212,128.412,112.359L128.412,112.359z M127.051,123.94c2.794,0,4.346-1.624,4.346-4.154v-7.451
		c0-2.507-1.552-4.299-4.346-4.299h-4.585v15.904H127.051L127.051,123.94z M136.63,112.334l0.955,6.137h-2.03L136.63,112.334
		L136.63,112.334z M138.492,123.94h3.01l-3.176-15.904h-3.319l-3.199,15.904h2.77l0.573-3.128h2.817L138.492,123.94L138.492,123.94z
		"/>
</g>
<path opacity="0.3" d="M116.125,26.745c-0.001-1.512-0.004-4.042-2.154-6.56l-0.113-0.13C103.321,8.26,87.606,1.484,70.741,1.465
	C53.89,1.484,38.189,8.252,27.667,20.03c-2.289,2.542-2.29,5.156-2.291,6.718l-0.004,16.815c0,6.551,0.987,12.881,2.935,18.813
	c2.167,6.602,5.541,12.774,10.028,18.348c3.555,4.417,7.813,8.462,12.655,12.025c8.328,6.13,15.908,8.942,16.744,9.243l0.567,0.205
	c0.788,0.282,1.612,0.426,2.449,0.426c0.837,0,1.661-0.144,2.451-0.426l0.564-0.204c0.836-0.3,8.416-3.113,16.745-9.244
	c4.843-3.564,9.1-7.609,12.654-12.025c4.487-5.571,7.861-11.744,10.029-18.348c1.946-5.932,2.935-12.261,2.935-18.814
	L116.125,26.745z"/>
<path fill="#FFFFFF" d="M116.126,25.279c-0.002-1.512-0.005-4.042-2.155-6.559l-0.113-0.13C103.321,6.794,87.606,0.019,70.741,0
	C53.891,0.019,38.189,6.787,27.667,18.564c-2.289,2.542-2.29,5.157-2.29,6.719l-0.004,16.815c0,6.551,0.987,12.882,2.935,18.813
	c2.167,6.602,5.541,12.775,10.028,18.348c3.556,4.416,7.813,8.461,12.655,12.024c8.328,6.13,15.908,8.943,16.744,9.244l0.568,0.205
	c0.788,0.282,1.612,0.426,2.449,0.426c0.837,0,1.661-0.144,2.451-0.427l0.564-0.203c0.836-0.301,8.417-3.113,16.745-9.245
	c4.843-3.563,9.1-7.609,12.655-12.024c4.486-5.572,7.861-11.745,10.028-18.348c1.947-5.931,2.935-12.262,2.935-18.814
	L116.126,25.279z"/>
<path fill="#AA1527" d="M71.344,95.756c-0.19,0.068-0.391,0.104-0.594,0.104c-0.203,0-0.402-0.035-0.593-0.104l-0.564-0.203
	c-0.76-0.272-7.648-2.833-15.347-8.499c-4.461-3.282-8.375-6.999-11.633-11.047c-4.07-5.055-7.128-10.646-9.088-16.616
	c-1.765-5.378-2.661-11.131-2.661-17.101l0.004-16.814c0-1.246,0.001-2.068,0.881-3.046C41.242,11.805,55.457,5.701,70.747,5.684
	V5.101l0.004,0.583c15.295,0.017,29.515,6.125,39.012,16.757l0.049,0.058c0.821,0.96,0.821,1.763,0.821,2.979l0.005,16.813
	c0,5.969-0.896,11.723-2.66,17.101c-1.961,5.971-5.018,11.562-9.089,16.616c-3.257,4.048-7.171,7.765-11.633,11.047
	c-7.697,5.666-14.587,8.227-15.347,8.499L71.344,95.756L71.344,95.756z M114.807,25.475c-0.002-1.417-0.003-3.556-1.828-5.694
	l-0.104-0.119C102.587,8.145,87.23,1.529,70.742,1.511C54.267,1.529,38.923,8.137,28.647,19.639
	c-1.95,2.166-1.952,4.375-1.952,5.836l-0.003,16.815c0,6.412,0.965,12.604,2.868,18.401c2.117,6.451,5.415,12.484,9.803,17.933
	c3.483,4.326,7.658,8.294,12.409,11.791c8.176,6.017,15.59,8.771,16.41,9.064l0.565,0.204c0.645,0.231,1.319,0.349,2.004,0.349
	c0.686,0,1.36-0.117,2.005-0.349l0.565-0.204c0.818-0.294,8.238-3.05,16.408-9.064c4.751-3.497,8.926-7.465,12.41-11.791
	c4.387-5.448,7.686-11.481,9.802-17.933c1.904-5.798,2.869-11.99,2.869-18.402L114.807,25.475L114.807,25.475z M81.479,38.945
	c0.009-0.068,0.017-0.136,0.017-0.207c0-0.26-0.063-0.517-0.168-0.743c-0.352-0.619-0.748-1.207-1.198-1.752
	c-0.166-0.201-0.342-0.396-0.521-0.585c-0.026-0.028-0.051-0.056-0.077-0.083c0,0.001,0,0.003,0,0.004
	c-0.028-0.03-0.058-0.059-0.086-0.088c-0.134-0.138-0.273-0.273-0.415-0.405c-0.058-0.053-0.112-0.105-0.17-0.157
	c-0.195-0.175-0.395-0.345-0.6-0.506c-0.206-0.162-0.419-0.314-0.635-0.462c-0.064-0.044-0.13-0.086-0.194-0.128
	c-0.162-0.107-0.327-0.209-0.496-0.309c-0.066-0.04-0.133-0.08-0.2-0.119c-0.23-0.129-0.463-0.253-0.7-0.368
	c-0.238-0.114-0.481-0.219-0.728-0.317c-0.073-0.03-0.147-0.057-0.221-0.085c-0.185-0.07-0.371-0.136-0.559-0.197
	c-0.075-0.024-0.15-0.049-0.228-0.072c-0.256-0.078-0.517-0.15-0.779-0.21c-0.263-0.061-0.53-0.11-0.8-0.153
	c-0.079-0.013-0.16-0.023-0.24-0.034c-0.201-0.028-0.404-0.052-0.608-0.069c-0.081-0.008-0.163-0.016-0.245-0.021
	c-0.277-0.019-0.557-0.032-0.839-0.032c-0.272,0-0.542,0.012-0.811,0.029c-0.082,0.006-0.163,0.014-0.245,0.021
	c-0.19,0.017-0.38,0.037-0.569,0.062c-0.086,0.012-0.172,0.023-0.258,0.037c-0.202,0.031-0.403,0.068-0.602,0.11
	c-0.059,0.013-0.119,0.022-0.178,0.036c-0.254,0.057-0.505,0.123-0.754,0.195c-0.06,0.018-0.119,0.039-0.179,0.057
	c-0.189,0.058-0.377,0.121-0.563,0.189c-0.08,0.029-0.159,0.06-0.238,0.09c-0.172,0.067-0.342,0.138-0.51,0.212
	c-0.07,0.032-0.142,0.062-0.211,0.094c-0.231,0.108-0.46,0.221-0.683,0.343c-0.008,0.004-0.015,0.009-0.023,0.013
	c-0.215,0.118-0.426,0.244-0.633,0.375c-0.066,0.042-0.131,0.085-0.196,0.129c-0.151,0.099-0.3,0.202-0.447,0.308
	c-0.067,0.048-0.134,0.097-0.2,0.147c-0.159,0.12-0.314,0.244-0.466,0.372c-0.043,0.035-0.087,0.069-0.129,0.106
	c-0.191,0.164-0.376,0.334-0.557,0.51c-0.044,0.043-0.087,0.089-0.131,0.133c-0.068,0.068-0.136,0.136-0.202,0.206
	c-0.066,0.07-0.131,0.141-0.196,0.213c-0.056,0.062-0.111,0.125-0.166,0.187c-0.049,0.056-0.1,0.111-0.147,0.167
	c0,0,0.003,0.004,0.004,0.006c-0.439,0.525-0.837,1.084-1.184,1.679c-0.143,0.252-0.229,0.555-0.229,0.863
	c0,0.063,0.009,0.123,0.016,0.185c0.076,0.495,0.233,0.986,0.479,1.464c1.566-0.763,3.19-1.343,4.862-1.735l-0.395-1.981
	c-0.008-0.038,0.014-0.076,0.05-0.088l1.543-0.53c0.023-0.008,0.048-0.005,0.068,0.008c0.02,0.014,0.032,0.035,0.035,0.059
	l0.187,2.237c1.03-0.17,2.075-0.273,3.135-0.305l-0.139-2.487c-0.001-0.021,0.007-0.042,0.021-0.058
	c0.015-0.016,0.036-0.024,0.057-0.024h1.559c0.021,0,0.042,0.008,0.058,0.024c0.014,0.015,0.021,0.037,0.021,0.058l-0.139,2.487
	c1.072,0.032,2.13,0.136,3.171,0.31l0.187-2.243c0.003-0.024,0.016-0.045,0.036-0.059c0.021-0.013,0.045-0.016,0.067-0.008
	l1.543,0.53c0.037,0.013,0.06,0.05,0.051,0.088l-0.396,1.988c1.663,0.393,3.279,0.973,4.839,1.733
	C81.245,39.92,81.4,39.436,81.479,38.945L81.479,38.945z M65.747,40.182c-1.53,0.363-3.017,0.895-4.453,1.592
	c0.249,0.499,0.553,1.126,0.885,1.848c0.103,0.222,0.208,0.454,0.315,0.694c1.212-0.591,2.489-1.051,3.802-1.37l-0.159-0.795
	L65.747,40.182L65.747,40.182z M58.49,36.309c0.841-2.595,3.318-4.755,6.637-5.923c0.047-0.028,0.093-0.06,0.141-0.087
	c1.247-0.415,2.606-0.69,4.038-0.799c0.013,0.002,0.025,0.004,0.038,0.006c0.476-0.038,0.958-0.06,1.448-0.06
	c5.96,0,10.953,2.889,12.272,6.772c1.287-3.182,2.409-6.449,3.353-9.79c0.15-0.529-0.393-0.99-0.89-0.756
	c-1.894,0.892-3.821,1.722-5.779,2.49c-0.427,0.167-0.886-0.16-0.873-0.619c0.074-2.815,0.271-5.6,0.584-8.349
	c0.063-0.563-0.576-0.926-1.027-0.582c-0.977,0.749-1.97,1.48-2.976,2.192c-0.357,0.251-0.854,0.077-0.983-0.339
	c-0.906-2.926-1.947-5.792-3.121-8.59c-0.22-0.525-0.966-0.525-1.187,0c-1.172,2.798-2.215,5.664-3.12,8.59
	c-0.129,0.417-0.626,0.591-0.983,0.339c-1.006-0.712-1.999-1.443-2.976-2.192c-0.45-0.345-1.091,0.018-1.026,0.582
	c0.313,2.75,0.509,5.534,0.583,8.349c0.012,0.459-0.445,0.786-0.874,0.619c-1.958-0.768-3.885-1.598-5.778-2.49
	c-0.498-0.234-1.041,0.227-0.891,0.756C56.053,29.802,57.187,33.099,58.49,36.309L58.49,36.309z M92.335,66.298
	c0.448-0.315,0.354-1.004-0.16-1.198c-1.616-0.609-3.137-1.414-4.535-2.381c-0.05-0.042-0.082-0.102-0.082-0.172
	c0-0.093,0.058-0.175,0.139-0.207l-0.002-0.005c2.096-0.86,4.156-1.79,6.175-2.79c2.623-1.304,5.181-2.723,7.661-4.254
	c0.471-0.291,0.459-0.98-0.023-1.251c-1.419-0.799-2.816-1.632-4.19-2.501c-0.35-0.221-0.44-0.69-0.202-1.029
	c2.485-3.563,4.734-7.304,6.725-11.2c0.297-0.581-0.269-1.225-0.887-1.014c-3.971,1.357-8.058,2.461-12.245,3.29
	c-0.415,0.082-0.813-0.208-0.86-0.628c-0.146-1.295-0.269-2.598-0.363-3.909c-0.047-0.643-0.842-0.913-1.269-0.429
	c-1.405,1.591-2.863,3.134-4.37,4.628c-0.555,0.55-1.117,1.094-1.686,1.63c-0.197,0.187-0.398,0.37-0.598,0.555
	c-0.621,1.293-1.433,3.09-2.173,5.063c-0.727,1.938-1.382,4.044-1.72,6.008c-0.152,0.885-0.241,1.74-0.241,2.538
	c0,2.221-1.092,4.184-2.767,5.389c-0.25,0.181-0.514,0.346-0.79,0.49c-0.337,0.176-0.689,0.325-1.057,0.441v5.433h0.002v7.253
	c0,0.061,0.008,0.121,0.024,0.178c0.169,0.564,0.501,1.06,0.938,1.432c0.041,0.035,0.105,0.005,0.105-0.049v-1.623
	c0-0.048-0.004-4.811-0.015-6.829c2,0.631,4.128,0.971,6.336,0.971C84.719,70.127,88.903,68.709,92.335,66.298L92.335,66.298z
	 M70.772,57.983c-0.008,0-0.015,0-0.022,0c0,0-0.002,0-0.003,0c-1.891-0.013-3.419-1.551-3.419-3.444c0-0.011,0-0.022,0-0.035
	c0.015-1.475,0.957-2.729,2.271-3.205c0.366-0.132,0.762-0.205,1.173-0.205c0.399,0,0.784,0.069,1.142,0.194
	c1.331,0.467,2.288,1.729,2.303,3.216c0,0.012,0.001,0.023,0.001,0.035C74.217,56.44,72.674,57.983,70.772,57.983L70.772,57.983z
	 M75.558,57.042c0-0.779,0.074-1.627,0.218-2.538c0.243-1.56,0.693-3.308,1.352-5.237c-0.508-0.267-1.033-0.501-1.571-0.701
	c-0.421-0.157-0.85-0.292-1.285-0.407l-0.328,1.65l-0.12,0.597c-0.006,0.037-0.039,0.063-0.075,0.063c-0.004,0-0.008,0-0.011,0
	c-0.042-0.006-0.07-0.043-0.067-0.084l0.033-0.399l0.161-1.927c-0.948-0.22-1.921-0.338-2.898-0.351l-0.103,1.841
	c-0.002,0.041-0.037,0.074-0.078,0.074c-0.041,0-0.075-0.033-0.078-0.074l-0.103-1.841c-0.965,0.013-1.926,0.127-2.863,0.342
	l0.169,2.023l0.026,0.312c0.004,0.042-0.025,0.079-0.066,0.084c-0.004,0-0.008,0-0.011,0c-0.037,0-0.069-0.025-0.077-0.063
	l-0.1-0.501l-0.35-1.756c-0.464,0.121-0.922,0.268-1.371,0.437c-0.517,0.194-1.021,0.42-1.51,0.677
	c0.585,1.724,1.085,3.528,1.355,5.242c0.138,0.878,0.217,1.73,0.217,2.538c0,2.613,2.114,4.739,4.721,4.765c0.001,0,0.002,0,0.002,0
	c0.016,0,0.03,0,0.044,0C73.42,61.807,75.558,59.669,75.558,57.042L75.558,57.042z M67.664,47.108
	c0.947-0.208,1.916-0.32,2.889-0.335L70.51,46.01l-0.13-2.352c-1.011,0.022-2.004,0.128-2.978,0.317l0.17,2.035L67.664,47.108
	L67.664,47.108z M63.438,46.534c0.238,0.591,0.474,1.206,0.703,1.837c0.321-0.165,0.647-0.317,0.979-0.458
	c0.66-0.277,1.338-0.506,2.031-0.684l-0.243-1.22l-0.368-1.847c-1.218,0.3-2.402,0.734-3.546,1.297
	c0.069,0.162,0.138,0.326,0.207,0.494C63.279,46.144,63.358,46.337,63.438,46.534L63.438,46.534z M67.297,42.731
	c0.993-0.185,2.001-0.292,3.012-0.319l-0.015-0.262l-0.142-2.541c-1.046,0.029-2.077,0.132-3.091,0.305l0.187,2.236L67.297,42.731
	L67.297,42.731z M74.357,42.15l0.188-2.23c-1.026-0.177-2.069-0.282-3.128-0.311l-0.142,2.541l-0.015,0.262
	c1.033,0.025,2.05,0.132,3.049,0.321L74.357,42.15L74.357,42.15z M71.06,46.01l-0.043,0.762c0.985,0.016,1.967,0.132,2.926,0.344
	l0.093-1.106l0.168-2.028c-0.985-0.192-1.99-0.302-3.013-0.324L71.06,46.01L71.06,46.01z M79.389,43.658
	c0.338-0.735,0.646-1.373,0.899-1.878c-1.43-0.694-2.908-1.226-4.431-1.589l-0.391,1.959l-0.159,0.798
	c1.298,0.319,2.561,0.777,3.78,1.374C79.191,44.093,79.291,43.872,79.389,43.658L79.389,43.658z M77.441,48.377
	c0.23-0.634,0.482-1.287,0.753-1.957c0.029-0.072,0.057-0.142,0.086-0.213c0.042-0.102,0.083-0.204,0.126-0.303
	c0.061-0.147,0.122-0.294,0.184-0.438c-1.138-0.56-2.314-0.992-3.524-1.292l-0.366,1.837l-0.244,1.23
	c0.663,0.172,1.314,0.389,1.946,0.653C76.754,48.04,77.101,48.202,77.441,48.377L77.441,48.377z M67.462,69.209
	c0.054-0.017,0.109-0.031,0.164-0.05v1.717c0,0.061,0.007,0.12,0.024,0.178c0.021,0.066,0.043,0.133,0.068,0.196
	c0.182,0.482,0.482,0.905,0.867,1.233c0.034,0.028,0.08,0.014,0.099-0.021c0.005-0.011,0.01-0.018,0.01-0.032v-1.618
	c0-0.012-0.001-0.163-0.002-0.383c-0.001-0.388-0.003-1-0.008-1.509c0-0.043-0.001-0.084-0.001-0.126h0l0-3.64v-1.821
	c-0.336-0.113-0.661-0.252-0.971-0.413c-0.048-0.026-0.097-0.052-0.145-0.079c-0.224-0.124-0.439-0.263-0.646-0.411
	c-1.674-1.205-2.766-3.168-2.766-5.389c0-0.798-0.088-1.653-0.24-2.538c-0.34-1.976-1.003-4.098-1.736-6.046
	c-0.707-1.883-1.479-3.604-2.086-4.877c-0.253-0.233-0.507-0.465-0.758-0.702c-0.568-0.537-1.13-1.08-1.686-1.63
	c-1.507-1.494-2.964-3.037-4.369-4.628c-0.427-0.483-1.222-0.214-1.269,0.429c-0.095,1.311-0.216,2.613-0.363,3.909
	c-0.048,0.42-0.447,0.71-0.861,0.628c-4.187-0.829-8.275-1.933-12.246-3.29c-0.618-0.211-1.183,0.433-0.886,1.014
	c1.99,3.896,4.239,7.636,6.725,11.2c0.237,0.339,0.147,0.808-0.203,1.029c-1.374,0.869-2.771,1.702-4.191,2.501
	c-0.482,0.271-0.493,0.96-0.023,1.251c2.481,1.531,5.037,2.951,7.662,4.254c2.019,1.003,4.081,1.931,6.178,2.791l-0.001,0.004
	c0.081,0.032,0.138,0.114,0.138,0.207c0,0.07-0.032,0.13-0.082,0.172c-1.399,0.967-2.919,1.771-4.535,2.381
	c-0.513,0.194-0.608,0.883-0.16,1.198c3.433,2.411,7.616,3.829,12.13,3.829C63.441,70.127,65.51,69.804,67.462,69.209L67.462,69.209
	z M68.554,73.968c-0.392,0.316-0.756,0.663-1.092,1.036c-0.914,1.017-1.61,2.233-2.013,3.576c-0.028,0.094-0.048,0.615-0.06,1.113
	h1.539c0.063,0,0.081,0.096,0.022,0.123l-1.576,0.733c0,0.052-0.001,0.092-0.001,0.112v0.824h1.262c0.069,0,0.088,0.104,0.025,0.134
	l-1.287,0.598v2.3v1.379c0,0.095,0.11,0.147,0.184,0.09c0.337-0.276,0.653-0.575,0.949-0.894c0.406-0.439,0.772-0.915,1.091-1.427
	c0.434-0.697,0.78-1.454,1.021-2.257c0.035-0.117,0.056-0.238,0.067-0.361c0.005-0.062,0.01-0.127,0.01-0.192v-6.821
	c0-0.013-0.005-0.022-0.01-0.032C68.662,73.954,68.6,73.93,68.554,73.968L68.554,73.968z M66.794,72.031
	c-0.207-0.13-0.431-0.237-0.667-0.316c-0.087-0.027-0.234-0.046-0.326-0.046h-2.066c-0.042,0-0.067,0.051-0.04,0.083
	c0.375,0.448,0.876,0.788,1.45,0.959c0.058,0.018,0.118,0.024,0.178,0.024h0.636h1.48c0.009,0,0.016-0.003,0.023-0.007
	c0.037-0.016,0.056-0.063,0.026-0.097c-0.009-0.011-0.018-0.019-0.026-0.028C67.268,72.38,67.043,72.189,66.794,72.031
	L66.794,72.031z M67.462,73.772c0.013-0.028,0.013-0.056,0-0.08c-0.013-0.023-0.033-0.042-0.063-0.045
	c-0.784-0.084-1.576-0.066-2.356,0.045c-1.073,0.156-2.123,0.495-3.101,1.021c-0.087,0.045-0.469,0.4-0.831,0.744l1.089,1.09
	c0.044,0.044-0.011,0.123-0.071,0.102l-1.634-0.596c-0.037,0.036-0.065,0.063-0.08,0.079l-0.583,0.582l0.893,0.893
	c0.048,0.048-0.012,0.134-0.077,0.11l-1.333-0.486l-2.602,2.603c-0.067,0.066-0.027,0.183,0.067,0.192
	c1.842,0.185,3.729-0.171,5.4-1.072c0.165-0.088,0.313-0.205,0.445-0.338l2.491-2.489l2.333-2.333
	C67.457,73.787,67.458,73.779,67.462,73.772L67.462,73.772z"/>
<path fill="#CF202E" d="M71.344,95.564c-0.19,0.068-0.39,0.104-0.593,0.104c-0.203,0-0.402-0.036-0.593-0.104l-0.565-0.202
	c-0.76-0.273-7.648-2.832-15.346-8.5c-4.462-3.283-8.376-7-11.634-11.047c-4.07-5.054-7.128-10.646-9.088-16.615
	c-1.765-5.378-2.66-11.132-2.66-17.101l0.004-16.814c0-1.246,0.001-2.068,0.881-3.046C41.243,11.612,55.457,5.508,70.747,5.492
	V4.909l0.004,0.583c15.295,0.016,29.515,6.124,39.012,16.757l0.049,0.057c0.821,0.961,0.822,1.764,0.822,2.979l0.004,16.813
	c0,5.969-0.896,11.723-2.66,17.101c-1.96,5.97-5.018,11.562-9.088,16.615c-3.258,4.047-7.172,7.764-11.634,11.047
	c-7.697,5.668-14.587,8.227-15.347,8.5L71.344,95.564L71.344,95.564z M114.807,25.282c-0.002-1.416-0.003-3.557-1.828-5.694
	l-0.104-0.119C102.587,7.952,87.23,1.337,70.742,1.319C54.267,1.337,38.923,7.944,28.647,19.447
	c-1.95,2.166-1.951,4.375-1.952,5.836l-0.003,16.815c0,6.412,0.965,12.604,2.868,18.402c2.117,6.45,5.415,12.484,9.803,17.931
	c3.483,4.327,7.658,8.295,12.41,11.792c8.176,6.017,15.59,8.77,16.409,9.064l0.565,0.203c0.645,0.231,1.319,0.349,2.004,0.349
	c0.685,0,1.359-0.117,2.005-0.349l0.565-0.203c0.818-0.295,8.238-3.052,16.408-9.064c4.751-3.497,8.927-7.465,12.41-11.792
	c4.387-5.447,7.686-11.481,9.803-17.931c1.903-5.799,2.868-11.992,2.868-18.403L114.807,25.282L114.807,25.282z M81.479,38.753
	c0.009-0.068,0.019-0.136,0.019-0.207c0-0.261-0.064-0.517-0.17-0.743c-0.352-0.618-0.748-1.207-1.198-1.751
	c-0.166-0.202-0.342-0.396-0.521-0.586c-0.026-0.027-0.051-0.055-0.077-0.082c0,0.001,0,0.003,0,0.004
	c-0.028-0.03-0.058-0.058-0.085-0.088c-0.135-0.138-0.274-0.273-0.416-0.405c-0.058-0.053-0.112-0.105-0.17-0.157
	c-0.195-0.174-0.395-0.344-0.6-0.506c-0.206-0.161-0.419-0.314-0.635-0.462c-0.064-0.044-0.13-0.086-0.194-0.128
	c-0.162-0.106-0.327-0.21-0.496-0.309c-0.066-0.04-0.133-0.08-0.2-0.118c-0.23-0.129-0.462-0.254-0.7-0.369
	c-0.238-0.114-0.481-0.219-0.728-0.318c-0.073-0.029-0.147-0.056-0.221-0.084c-0.184-0.07-0.37-0.136-0.559-0.197
	c-0.075-0.024-0.15-0.049-0.227-0.072c-0.257-0.078-0.516-0.149-0.78-0.21c-0.263-0.061-0.53-0.11-0.8-0.153
	c-0.079-0.013-0.16-0.023-0.24-0.035c-0.2-0.028-0.404-0.051-0.608-0.069c-0.081-0.007-0.163-0.015-0.245-0.021
	c-0.277-0.019-0.557-0.031-0.839-0.031c-0.272,0-0.542,0.012-0.811,0.029c-0.082,0.006-0.163,0.014-0.245,0.021
	c-0.19,0.017-0.38,0.037-0.568,0.062c-0.086,0.012-0.172,0.023-0.259,0.037c-0.202,0.031-0.403,0.068-0.602,0.11
	c-0.059,0.013-0.119,0.022-0.178,0.036c-0.254,0.057-0.505,0.122-0.753,0.195c-0.061,0.018-0.119,0.038-0.179,0.057
	c-0.189,0.058-0.377,0.122-0.563,0.189c-0.08,0.029-0.159,0.06-0.238,0.09c-0.172,0.067-0.341,0.138-0.509,0.213
	c-0.071,0.032-0.142,0.062-0.212,0.094c-0.231,0.108-0.459,0.221-0.683,0.343c-0.008,0.004-0.015,0.009-0.023,0.014
	c-0.215,0.118-0.425,0.244-0.633,0.375c-0.066,0.042-0.131,0.086-0.196,0.129c-0.152,0.1-0.3,0.202-0.447,0.309
	c-0.067,0.048-0.134,0.097-0.2,0.147c-0.159,0.12-0.313,0.244-0.466,0.372c-0.042,0.036-0.087,0.069-0.128,0.106
	c-0.191,0.165-0.377,0.335-0.558,0.511c-0.044,0.043-0.087,0.089-0.131,0.133c-0.068,0.069-0.136,0.137-0.202,0.206
	c-0.066,0.071-0.131,0.142-0.196,0.213c-0.056,0.062-0.111,0.125-0.165,0.188c-0.049,0.056-0.101,0.11-0.148,0.167
	c0,0,0.003,0.004,0.004,0.006c-0.439,0.525-0.837,1.084-1.184,1.679c-0.143,0.252-0.23,0.555-0.23,0.863
	c0,0.063,0.009,0.123,0.016,0.185c0.077,0.495,0.234,0.986,0.479,1.464c1.566-0.763,3.19-1.343,4.862-1.735l-0.395-1.98
	c-0.008-0.039,0.014-0.076,0.05-0.089l1.543-0.53c0.023-0.008,0.048-0.005,0.068,0.008c0.02,0.013,0.032,0.035,0.035,0.059
	l0.187,2.237c1.03-0.17,2.075-0.273,3.135-0.304l-0.139-2.487c-0.001-0.021,0.006-0.042,0.021-0.058
	c0.015-0.016,0.036-0.024,0.057-0.024h1.558c0.021,0,0.042,0.009,0.058,0.024c0.014,0.015,0.021,0.036,0.021,0.058l-0.139,2.487
	c1.072,0.032,2.13,0.136,3.172,0.31l0.186-2.243c0.003-0.024,0.016-0.046,0.036-0.059s0.045-0.016,0.067-0.008l1.543,0.53
	c0.038,0.013,0.06,0.05,0.051,0.089l-0.396,1.988c1.663,0.393,3.279,0.972,4.839,1.733C81.245,39.728,81.4,39.243,81.479,38.753
	L81.479,38.753z M65.747,39.99c-1.53,0.362-3.017,0.895-4.453,1.592c0.25,0.499,0.554,1.126,0.886,1.848
	c0.103,0.223,0.208,0.455,0.315,0.694c1.213-0.591,2.489-1.051,3.802-1.37l-0.159-0.795L65.747,39.99L65.747,39.99z M58.49,36.117
	c0.841-2.596,3.318-4.755,6.637-5.923c0.047-0.028,0.093-0.059,0.141-0.086c1.247-0.415,2.606-0.691,4.038-0.799
	c0.013,0.001,0.026,0.004,0.039,0.006c0.475-0.038,0.958-0.06,1.447-0.06c5.96,0,10.953,2.889,12.272,6.772
	c1.287-3.182,2.41-6.449,3.353-9.79c0.15-0.53-0.393-0.99-0.89-0.756c-1.894,0.891-3.821,1.722-5.778,2.489
	c-0.428,0.167-0.887-0.16-0.874-0.619c0.074-2.814,0.271-5.599,0.584-8.348c0.063-0.563-0.576-0.927-1.026-0.582
	c-0.978,0.75-1.969,1.48-2.977,2.192c-0.357,0.251-0.854,0.077-0.983-0.339c-0.906-2.926-1.947-5.792-3.121-8.591
	c-0.22-0.524-0.966-0.524-1.186,0c-1.173,2.798-2.215,5.665-3.121,8.591c-0.129,0.417-0.626,0.591-0.983,0.339
	c-1.006-0.712-1.999-1.443-2.976-2.192c-0.45-0.345-1.091,0.019-1.026,0.582c0.313,2.749,0.509,5.534,0.583,8.348
	c0.012,0.459-0.445,0.787-0.873,0.619c-1.958-0.768-3.885-1.599-5.778-2.489c-0.499-0.234-1.041,0.226-0.892,0.756
	C56.053,29.61,57.187,32.907,58.49,36.117L58.49,36.117z M92.335,66.106c0.449-0.316,0.354-1.003-0.16-1.197
	c-1.616-0.609-3.136-1.414-4.535-2.383c-0.05-0.04-0.082-0.101-0.082-0.17c0-0.095,0.058-0.175,0.139-0.209l-0.002-0.004
	c2.096-0.86,4.156-1.788,6.175-2.79c2.625-1.303,5.181-2.723,7.661-4.253c0.471-0.291,0.459-0.98-0.023-1.251
	c-1.419-0.799-2.816-1.633-4.19-2.501c-0.35-0.221-0.44-0.69-0.202-1.03c2.485-3.563,4.734-7.304,6.725-11.199
	c0.297-0.581-0.269-1.225-0.887-1.014c-3.971,1.358-8.058,2.461-12.245,3.29c-0.415,0.082-0.813-0.208-0.86-0.628
	c-0.146-1.295-0.269-2.598-0.363-3.909c-0.047-0.643-0.842-0.912-1.269-0.429c-1.405,1.591-2.862,3.134-4.368,4.627
	c-0.557,0.55-1.119,1.094-1.687,1.631c-0.198,0.187-0.399,0.37-0.599,0.554c-0.621,1.294-1.433,3.091-2.173,5.063
	c-0.727,1.938-1.382,4.044-1.72,6.008c-0.151,0.884-0.241,1.739-0.241,2.537c0,2.221-1.092,4.186-2.767,5.391
	c-0.25,0.181-0.514,0.344-0.79,0.489c-0.336,0.175-0.689,0.324-1.057,0.441v5.433l0.002,0.001v7.252c0,0.061,0.008,0.12,0.025,0.178
	c0.168,0.563,0.5,1.06,0.937,1.432c0.041,0.036,0.106,0.005,0.106-0.049v-1.623c0-0.048-0.005-4.81-0.016-6.827
	c2,0.628,4.128,0.968,6.336,0.968C84.719,69.934,88.903,68.518,92.335,66.106L92.335,66.106z M70.772,57.792
	c-0.008,0-0.015,0-0.022,0c0,0-0.002,0-0.003,0c-1.891-0.014-3.419-1.55-3.419-3.444c0-0.012,0.001-0.023,0.001-0.035
	c0.015-1.475,0.956-2.729,2.271-3.205c0.366-0.133,0.761-0.206,1.173-0.206c0.4,0,0.784,0.069,1.142,0.194
	c1.331,0.467,2.288,1.729,2.303,3.216c0,0.012,0.001,0.023,0.001,0.035C74.217,56.249,72.674,57.792,70.772,57.792L70.772,57.792z
	 M75.559,56.849c0-0.778,0.073-1.626,0.217-2.537c0.244-1.56,0.693-3.309,1.352-5.238c-0.508-0.267-1.033-0.5-1.571-0.7
	c-0.421-0.157-0.85-0.293-1.285-0.408l-0.328,1.65l-0.12,0.598c-0.006,0.037-0.039,0.063-0.075,0.063c-0.004,0-0.007,0-0.011-0.001
	c-0.042-0.005-0.07-0.042-0.067-0.083l0.033-0.399l0.161-1.927c-0.948-0.22-1.921-0.338-2.898-0.352l-0.103,1.841
	c-0.002,0.042-0.036,0.074-0.078,0.074c-0.041,0-0.075-0.032-0.078-0.074l-0.103-1.841c-0.965,0.013-1.925,0.128-2.863,0.342
	l0.169,2.024l0.026,0.312c0.003,0.042-0.026,0.079-0.067,0.083c-0.003,0-0.008,0.001-0.011,0.001c-0.037,0-0.069-0.025-0.076-0.063
	l-0.101-0.502l-0.35-1.755c-0.464,0.121-0.922,0.267-1.371,0.437c-0.517,0.195-1.021,0.421-1.51,0.677
	c0.585,1.724,1.085,3.528,1.355,5.242c0.138,0.877,0.217,1.73,0.217,2.537c0,2.613,2.114,4.74,4.721,4.767c0.001,0,0.002,0,0.002,0
	c0.016,0,0.03,0,0.043,0C73.42,61.616,75.559,59.478,75.559,56.849L75.559,56.849z M67.664,46.916
	c0.947-0.208,1.916-0.319,2.889-0.335l-0.043-0.762l-0.13-2.352c-1.011,0.022-2.004,0.128-2.978,0.316l0.17,2.036L67.664,46.916
	L67.664,46.916z M63.438,46.342c0.238,0.591,0.474,1.206,0.703,1.837c0.321-0.165,0.648-0.317,0.979-0.458
	c0.66-0.277,1.338-0.506,2.031-0.684l-0.243-1.22l-0.368-1.848c-1.218,0.301-2.402,0.734-3.546,1.297
	c0.069,0.162,0.138,0.326,0.207,0.494C63.28,45.952,63.358,46.146,63.438,46.342L63.438,46.342z M67.297,42.539
	c0.993-0.186,2.001-0.293,3.012-0.319l-0.014-0.262l-0.142-2.542c-1.046,0.029-2.078,0.132-3.092,0.306l0.188,2.236L67.297,42.539
	L67.297,42.539z M74.357,41.958l0.188-2.23c-1.026-0.178-2.069-0.282-3.128-0.312l-0.142,2.542L71.26,42.22
	c1.033,0.025,2.05,0.133,3.049,0.321L74.357,41.958L74.357,41.958z M71.06,45.818l-0.042,0.762c0.986,0.016,1.966,0.131,2.925,0.344
	l0.093-1.106l0.169-2.028c-0.986-0.193-1.991-0.302-3.014-0.325L71.06,45.818L71.06,45.818z M79.389,43.465
	c0.338-0.734,0.646-1.372,0.899-1.878c-1.43-0.694-2.908-1.226-4.431-1.589l-0.391,1.96l-0.159,0.798
	c1.298,0.319,2.561,0.777,3.78,1.374C79.191,43.901,79.292,43.68,79.389,43.465L79.389,43.465z M77.441,48.185
	c0.23-0.634,0.482-1.287,0.754-1.958c0.028-0.071,0.056-0.141,0.085-0.212c0.042-0.102,0.084-0.203,0.126-0.303
	c0.061-0.148,0.122-0.294,0.184-0.438c-1.137-0.561-2.314-0.992-3.523-1.292l-0.367,1.837l-0.244,1.229
	c0.663,0.172,1.314,0.39,1.947,0.653C76.754,47.848,77.101,48.01,77.441,48.185L77.441,48.185z M67.462,69.017
	c0.055-0.018,0.109-0.032,0.164-0.05v1.717c0,0.06,0.008,0.119,0.024,0.177c0.021,0.067,0.043,0.134,0.068,0.199
	c0.182,0.48,0.482,0.902,0.867,1.231c0.033,0.029,0.08,0.014,0.099-0.021c0.005-0.009,0.01-0.019,0.01-0.032v-1.617
	c0-0.014,0-0.162-0.001-0.384c-0.001-0.388-0.004-1.001-0.008-1.509c0-0.042-0.001-0.084-0.001-0.125h0l0-3.641v-1.822
	c-0.336-0.111-0.661-0.25-0.971-0.412c-0.048-0.026-0.096-0.052-0.145-0.079c-0.224-0.125-0.439-0.262-0.646-0.41
	c-1.674-1.205-2.766-3.169-2.766-5.391c0-0.798-0.088-1.653-0.24-2.537c-0.34-1.977-1.003-4.098-1.735-6.046
	c-0.708-1.883-1.48-3.604-2.087-4.876c-0.253-0.234-0.507-0.466-0.758-0.702c-0.569-0.537-1.131-1.081-1.686-1.631
	c-1.507-1.494-2.964-3.037-4.369-4.627c-0.427-0.483-1.222-0.214-1.268,0.429c-0.095,1.311-0.217,2.614-0.363,3.909
	c-0.048,0.42-0.446,0.71-0.861,0.628c-4.187-0.829-8.275-1.932-12.246-3.29c-0.618-0.211-1.182,0.433-0.885,1.014
	c1.989,3.896,4.239,7.636,6.725,11.199c0.237,0.339,0.147,0.809-0.203,1.03c-1.374,0.868-2.771,1.702-4.191,2.501
	c-0.482,0.271-0.493,0.96-0.023,1.251c2.481,1.53,5.037,2.951,7.662,4.253c2.02,1.003,4.082,1.931,6.178,2.792l-0.001,0.002
	c0.082,0.034,0.139,0.114,0.139,0.209c0,0.069-0.032,0.13-0.082,0.17c-1.399,0.969-2.919,1.772-4.536,2.383
	c-0.513,0.194-0.608,0.881-0.159,1.197c3.433,2.412,7.615,3.828,12.129,3.828C63.441,69.934,65.511,69.612,67.462,69.017
	L67.462,69.017z M68.554,73.776c-0.391,0.316-0.756,0.663-1.092,1.038c-0.914,1.016-1.61,2.23-2.013,3.575
	c-0.028,0.094-0.048,0.614-0.06,1.113h1.539c0.063,0,0.08,0.094,0.022,0.121l-1.577,0.734c0,0.053-0.001,0.093-0.001,0.112v0.824
	h1.262c0.068,0,0.087,0.104,0.024,0.133l-1.287,0.6v2.299v1.38c0,0.095,0.11,0.148,0.184,0.089c0.337-0.276,0.653-0.575,0.949-0.895
	c0.407-0.438,0.772-0.915,1.091-1.425c0.434-0.697,0.78-1.454,1.021-2.259c0.035-0.116,0.056-0.238,0.067-0.359
	c0.005-0.063,0.01-0.128,0.01-0.192v-6.82c0-0.015-0.005-0.023-0.01-0.033C68.662,73.762,68.6,73.739,68.554,73.776L68.554,73.776z
	 M66.794,71.838c-0.207-0.13-0.431-0.238-0.667-0.314c-0.087-0.03-0.234-0.048-0.326-0.048h-2.066c-0.043,0-0.068,0.052-0.04,0.084
	c0.375,0.449,0.876,0.787,1.45,0.958c0.058,0.018,0.118,0.025,0.178,0.025h0.635h1.48c0.009,0,0.016-0.004,0.023-0.007
	c0.037-0.016,0.056-0.063,0.026-0.097c-0.008-0.011-0.018-0.02-0.026-0.03C67.269,72.189,67.043,71.996,66.794,71.838L66.794,71.838
	z M67.462,73.58c0.013-0.026,0.013-0.056,0-0.08c-0.013-0.022-0.033-0.04-0.063-0.045c-0.783-0.084-1.576-0.067-2.356,0.045
	c-1.073,0.156-2.123,0.496-3.101,1.021c-0.087,0.047-0.469,0.402-0.831,0.745l1.089,1.089c0.044,0.044-0.011,0.124-0.071,0.102
	l-1.634-0.595c-0.037,0.035-0.065,0.064-0.08,0.078l-0.583,0.583l0.893,0.893c0.048,0.048-0.012,0.135-0.077,0.11l-1.333-0.485
	l-2.602,2.602c-0.066,0.066-0.027,0.183,0.067,0.192c1.842,0.185,3.729-0.172,5.4-1.072c0.165-0.088,0.313-0.205,0.445-0.337
	l2.491-2.491l2.333-2.331C67.457,73.595,67.458,73.585,67.462,73.58L67.462,73.58z"/>
</svg>
