<svg enable-background="new 0 0 141.501 138.467" height="138.467" viewBox="0 0 141.501 138.467" width="141.501" xmlns="http://www.w3.org/2000/svg"><path d="m0 124.569v-15.903h2.961v13.277h4.442v2.626zm13.373-11.606.955 6.138h-2.03zm1.862 11.606h3.009l-3.176-15.903h-3.32l-3.199 15.903h2.77l.573-3.127h2.818zm8.182.359c2.818 0 4.299-1.768 4.299-4.155v-1.935h-2.651v1.91c0 .932-.525 1.576-1.6 1.576s-1.624-.645-1.624-1.528v-8.358c0-.884.549-1.528 1.624-1.528 1.074 0 1.6.645 1.6 1.576v1.911h2.651v-1.935c0-2.388-1.48-4.155-4.299-4.155-2.841 0-4.584 1.91-4.584 4.37v7.88c-0 2.46 1.743 4.371 4.584 4.371zm11.208-12.681v2.269c0 .86-.406 1.267-1.17 1.267h-1.505v-4.681h1.624c.741-.001 1.051.429 1.051 1.145zm1.719 12.418h1.791v-.884c-.358-.382-.573-.883-.573-1.623v-2.914c0-1.026-.598-2.077-1.839-2.411 1.242-.383 1.791-1.267 1.791-2.46v-2.245c0-2.221-1.456-3.462-3.629-3.462h-4.895v15.903h2.96v-6.591h1.553c.835 0 1.218.621 1.218 1.361v2.985c-0 1.385.453 2.341 1.623 2.341zm8.494-12.203v8.311c0 .932-.55 1.552-1.529 1.552-.955 0-1.504-.62-1.504-1.552v-8.311c0-.932.549-1.553 1.504-1.553.98.001 1.529.622 1.529 1.553zm-1.528 12.466c2.794 0 4.513-1.815 4.513-4.347v-7.929c0-2.507-1.719-4.322-4.513-4.322-2.771 0-4.513 1.815-4.513 4.322v7.929c-.001 2.532 1.742 4.347 4.513 4.347zm10.204 0c2.627 0 4.395-1.84 4.395-4.395 0-2.149-1.337-3.583-3.224-4.991-1.767-1.29-2.555-1.981-2.555-3.319 0-.883.572-1.433 1.432-1.433 1.003 0 1.505.716 1.505 1.695v.956h2.698v-1.027c0-2.364-1.671-4.084-4.179-4.084-2.865 0-4.346 1.982-4.346 4.275 0 2.22 1.767 3.797 3.391 4.967 1.576 1.17 2.388 2.03 2.388 3.295 0 .979-.525 1.601-1.576 1.601-1.075 0-1.624-.646-1.624-1.815v-.932h-2.722v1.1c0 2.483 1.695 4.107 4.417 4.107zm9.863 0c2.627 0 4.394-1.84 4.394-4.395 0-2.149-1.337-3.583-3.223-4.991-1.768-1.29-2.556-1.981-2.556-3.319 0-.883.573-1.433 1.433-1.433 1.003 0 1.505.716 1.505 1.695v.956h2.698v-1.027c0-2.364-1.671-4.084-4.179-4.084-2.865 0-4.346 1.982-4.346 4.275 0 2.22 1.768 3.797 3.391 4.967 1.576 1.17 2.388 2.03 2.388 3.295 0 .979-.525 1.601-1.576 1.601-1.074 0-1.624-.646-1.624-1.815v-.932h-2.722v1.1c0 2.483 1.696 4.107 4.417 4.107zm5.517-.359h7.595v-2.65h-4.634v-4.419h3.2v-2.34h-3.2v-3.94h4.634v-2.555h-7.595zm16.863.359c2.817 0 4.298-1.768 4.298-4.155v-1.935h-2.65v1.91c0 .932-.525 1.576-1.6 1.576s-1.624-.645-1.624-1.528v-8.358c0-.884.549-1.528 1.624-1.528 1.074 0 1.6.645 1.6 1.576v1.91h2.65v-1.934c0-2.389-1.48-4.156-4.298-4.156-2.842 0-4.586 1.911-4.586 4.37v7.881c0 2.46 1.745 4.371 4.586 4.371zm9.604-11.965.954 6.138h-2.029zm1.862 11.606h3.009l-3.176-15.903h-3.319l-3.2 15.903h2.771l.572-3.127h2.819zm11.033 0h2.292v-15.903h-2.675v9.433l-1.051-2.532-2.937-6.9h-2.555v15.903h2.722v-9.313l1.123 2.531zm8.215-11.606.955 6.138h-2.03zm1.862 11.606h3.009l-3.175-15.903h-3.32l-3.2 15.903h2.771l.572-3.127h2.818zm10.079-11.582v7.284c0 1.122-.478 1.743-1.576 1.743h-1.408v-10.794h1.408c1.098 0 1.576.621 1.576 1.767zm-1.361 11.582c2.794 0 4.346-1.623 4.346-4.154v-7.451c0-2.508-1.552-4.298-4.346-4.298h-4.585v15.903zm9.579-11.606.955 6.138h-2.03zm1.862 11.606h3.01l-3.176-15.903h-3.319l-3.2 15.903h2.77l.574-3.127h2.817z" opacity=".3"/><path d="m0 123.941v-15.905h2.961v13.277h4.442v2.628zm13.373-11.607.955 6.138h-2.03zm1.862 11.607h3.009l-3.176-15.905h-3.319l-3.199 15.905h2.77l.573-3.129h2.818zm8.182.357c2.818 0 4.299-1.767 4.299-4.154v-1.936h-2.651v1.911c0 .932-.525 1.576-1.6 1.576-1.074 0-1.624-.645-1.624-1.529v-8.357c0-.884.549-1.528 1.624-1.528s1.6.645 1.6 1.576v1.91h2.651v-1.935c0-2.388-1.48-4.155-4.299-4.155-2.841 0-4.584 1.911-4.584 4.37v7.881c-0 2.459 1.743 4.37 4.584 4.37zm11.208-12.68v2.27c0 .859-.406 1.266-1.17 1.266h-1.505v-4.682h1.624c.74-.001 1.051.43 1.051 1.146zm1.719 12.419h1.791v-.885c-.358-.382-.573-.883-.573-1.624v-2.913c0-1.026-.597-2.077-1.839-2.412 1.242-.382 1.791-1.266 1.791-2.459v-2.244c0-2.222-1.456-3.464-3.629-3.464h-4.896v15.905h2.961v-6.592h1.552c.836 0 1.218.621 1.218 1.361v2.985c.001 1.386.454 2.342 1.624 2.342zm8.494-12.204v8.312c0 .931-.55 1.552-1.529 1.552-.955 0-1.505-.621-1.505-1.552v-8.312c0-.931.55-1.552 1.505-1.552.979 0 1.529.621 1.529 1.552zm-1.528 12.465c2.794 0 4.513-1.814 4.513-4.346v-7.929c0-2.507-1.719-4.322-4.513-4.322-2.771 0-4.513 1.815-4.513 4.322v7.929c-.001 2.532 1.742 4.346 4.513 4.346zm10.204 0c2.627 0 4.394-1.839 4.394-4.395 0-2.148-1.337-3.581-3.224-4.99-1.767-1.29-2.555-1.981-2.555-3.319 0-.884.573-1.434 1.433-1.434 1.003 0 1.505.717 1.505 1.696v.955h2.698v-1.026c0-2.364-1.67-4.084-4.179-4.084-2.865 0-4.346 1.982-4.346 4.274 0 2.222 1.768 3.797 3.391 4.967 1.576 1.17 2.388 2.03 2.388 3.296 0 .979-.525 1.6-1.576 1.6-1.075 0-1.624-.644-1.624-1.814v-.932h-2.722v1.099c0 2.483 1.695 4.107 4.417 4.107zm9.864 0c2.626 0 4.393-1.839 4.393-4.395 0-2.148-1.337-3.581-3.223-4.99-1.767-1.29-2.555-1.981-2.555-3.319 0-.884.573-1.434 1.432-1.434 1.003 0 1.505.717 1.505 1.696v.955h2.698v-1.026c0-2.364-1.671-4.084-4.179-4.084-2.866 0-4.347 1.982-4.347 4.274 0 2.222 1.768 3.797 3.391 4.967 1.576 1.17 2.388 2.03 2.388 3.296 0 .979-.524 1.6-1.575 1.6-1.075 0-1.624-.644-1.624-1.814v-.932h-2.722v1.099c0 2.483 1.696 4.107 4.418 4.107zm5.516-.357h7.594v-2.651h-4.633v-4.418h3.2v-2.34h-3.2v-3.94h4.633v-2.556h-7.594zm16.863.357c2.817 0 4.298-1.768 4.298-4.155v-1.935h-2.65v1.911c0 .932-.525 1.576-1.6 1.576s-1.624-.645-1.624-1.529v-8.357c0-.884.549-1.528 1.624-1.528 1.074 0 1.6.645 1.6 1.576v1.909h2.65v-1.934c0-2.388-1.48-4.155-4.298-4.155-2.842 0-4.586 1.911-4.586 4.37v7.881c0 2.459 1.745 4.37 4.586 4.37zm9.604-11.964.955 6.137h-2.029zm1.862 11.606h3.009l-3.175-15.904h-3.32l-3.2 15.904h2.771l.573-3.128h2.818zm11.032 0h2.293v-15.904h-2.674v9.433l-1.051-2.531-2.938-6.901h-2.554v15.904h2.722v-9.313l1.123 2.531zm8.216-11.606.955 6.137h-2.029zm1.863 11.606h3.008l-3.175-15.904h-3.32l-3.2 15.904h2.771l.572-3.128h2.818zm10.078-11.581v7.282c0 1.123-.477 1.744-1.576 1.744h-1.408v-10.794h1.408c1.099 0 1.576.621 1.576 1.768zm-1.361 11.581c2.794 0 4.346-1.624 4.346-4.154v-7.451c0-2.507-1.552-4.299-4.346-4.299h-4.585v15.904zm9.579-11.606.955 6.137h-2.03zm1.862 11.606h3.01l-3.176-15.904h-3.319l-3.199 15.904h2.77l.573-3.128h2.817z" fill="#cf202e"/><path d="m116.125 26.745c-.001-1.512-.004-4.042-2.154-6.56l-.113-.13c-10.537-11.795-26.252-18.571-43.117-18.59-16.851.019-32.552 6.787-43.074 18.565-2.289 2.542-2.29 5.156-2.291 6.718l-.004 16.815c0 6.551.987 12.881 2.935 18.813 2.167 6.602 5.541 12.774 10.028 18.348 3.555 4.417 7.813 8.462 12.655 12.025 8.328 6.13 15.908 8.942 16.744 9.243l.567.205c.788.282 1.612.426 2.449.426s1.661-.144 2.451-.426l.564-.204c.836-.3 8.416-3.113 16.745-9.244 4.843-3.564 9.1-7.609 12.654-12.025 4.487-5.571 7.861-11.744 10.029-18.348 1.946-5.932 2.935-12.261 2.935-18.814z" opacity=".3"/><path d="m116.126 25.279c-.002-1.512-.005-4.042-2.155-6.559l-.113-.13c-10.537-11.796-26.252-18.571-43.117-18.59-16.85.019-32.552 6.787-43.074 18.564-2.289 2.542-2.29 5.157-2.29 6.719l-.004 16.815c0 6.551.987 12.882 2.935 18.813 2.167 6.602 5.541 12.775 10.028 18.348 3.556 4.416 7.813 8.461 12.655 12.024 8.328 6.13 15.908 8.943 16.744 9.244l.568.205c.788.282 1.612.426 2.449.426s1.661-.144 2.451-.427l.564-.203c.836-.301 8.417-3.113 16.745-9.245 4.843-3.563 9.1-7.609 12.655-12.024 4.486-5.572 7.861-11.745 10.028-18.348 1.947-5.931 2.935-12.262 2.935-18.814z" fill="#fff"/><path d="m71.344 95.756c-.19.068-.391.104-.594.104s-.402-.035-.593-.104l-.564-.203c-.76-.272-7.648-2.833-15.347-8.499-4.461-3.282-8.375-6.999-11.633-11.047-4.07-5.055-7.128-10.646-9.088-16.616-1.765-5.378-2.661-11.131-2.661-17.101l.004-16.814c0-1.246.001-2.068.881-3.046 9.493-10.625 23.708-16.729 38.998-16.746v-.583l.004.583c15.295.017 29.515 6.125 39.012 16.757l.049.058c.821.96.821 1.763.821 2.979l.005 16.813c0 5.969-.896 11.723-2.66 17.101-1.961 5.971-5.018 11.562-9.089 16.616-3.257 4.048-7.171 7.765-11.633 11.047-7.697 5.666-14.587 8.227-15.347 8.499zm43.463-70.281c-.002-1.417-.003-3.556-1.828-5.694l-.104-.119c-10.288-11.517-25.645-18.133-42.133-18.151-16.475.018-31.819 6.626-42.095 18.128-1.95 2.166-1.952 4.375-1.952 5.836l-.003 16.815c0 6.412.965 12.604 2.868 18.401 2.117 6.451 5.415 12.484 9.803 17.933 3.483 4.326 7.658 8.294 12.409 11.791 8.176 6.017 15.59 8.771 16.41 9.064l.565.204c.645.231 1.319.349 2.004.349.686 0 1.36-.117 2.005-.349l.565-.204c.818-.294 8.238-3.05 16.408-9.064 4.751-3.497 8.926-7.465 12.41-11.791 4.387-5.448 7.686-11.481 9.802-17.933 1.904-5.798 2.869-11.99 2.869-18.402zm-33.328 13.47c.009-.068.017-.136.017-.207 0-.26-.063-.517-.168-.743-.352-.619-.748-1.207-1.198-1.752-.166-.201-.342-.396-.521-.585-.026-.028-.051-.056-.077-.083v.004c-.028-.03-.058-.059-.086-.088-.134-.138-.273-.273-.415-.405-.058-.053-.112-.105-.17-.157-.195-.175-.395-.345-.6-.506-.206-.162-.419-.314-.635-.462-.064-.044-.13-.086-.194-.128-.162-.107-.327-.209-.496-.309-.066-.04-.133-.08-.2-.119-.23-.129-.463-.253-.7-.368-.238-.114-.481-.219-.728-.317-.073-.03-.147-.057-.221-.085-.185-.07-.371-.136-.559-.197-.075-.024-.15-.049-.228-.072-.256-.078-.517-.15-.779-.21-.263-.061-.53-.11-.8-.153-.079-.013-.16-.023-.24-.034-.201-.028-.404-.052-.608-.069-.081-.008-.163-.016-.245-.021-.277-.019-.557-.032-.839-.032-.272 0-.542.012-.811.029-.082.006-.163.014-.245.021-.19.017-.38.037-.569.062-.086.012-.172.023-.258.037-.202.031-.403.068-.602.11-.059.013-.119.022-.178.036-.254.057-.505.123-.754.195-.06.018-.119.039-.179.057-.189.058-.377.121-.563.189-.08.029-.159.06-.238.09-.172.067-.342.138-.51.212-.07.032-.142.062-.211.094-.231.108-.46.221-.683.343-.008.004-.015.009-.023.013-.215.118-.426.244-.633.375-.066.042-.131.085-.196.129-.151.099-.3.202-.447.308-.067.048-.134.097-.2.147-.159.12-.314.244-.466.372-.043.035-.087.069-.129.106-.191.164-.376.334-.557.51-.044.043-.087.089-.131.133-.068.068-.136.136-.202.206s-.131.141-.196.213c-.056.062-.111.125-.166.187-.049.056-.1.111-.147.167 0 0 .003.004.004.006-.439.525-.837 1.084-1.184 1.679-.143.252-.229.555-.229.863 0 .063.009.123.016.185.076.495.233.986.479 1.464 1.566-.763 3.19-1.343 4.862-1.735l-.395-1.981c-.008-.038.014-.076.05-.088l1.543-.53c.023-.008.048-.005.068.008.02.014.032.035.035.059l.187 2.237c1.03-.17 2.075-.273 3.135-.305l-.139-2.487c-.001-.021.007-.042.021-.058.015-.016.036-.024.057-.024h1.559c.021 0 .042.008.058.024.014.015.021.037.021.058l-.139 2.487c1.072.032 2.13.136 3.171.31l.187-2.243c.003-.024.016-.045.036-.059.021-.013.045-.016.067-.008l1.543.53c.037.013.06.05.051.088l-.396 1.988c1.663.393 3.279.973 4.839 1.733.243-.469.398-.953.477-1.444zm-15.732 1.237c-1.53.363-3.017.895-4.453 1.592.249.499.553 1.126.885 1.848.103.222.208.454.315.694 1.212-.591 2.489-1.051 3.802-1.37l-.159-.795zm-7.257-3.873c.841-2.595 3.318-4.755 6.637-5.923.047-.028.093-.06.141-.087 1.247-.415 2.606-.69 4.038-.799.013.002.025.004.038.006.476-.038.958-.06 1.448-.06 5.96 0 10.953 2.889 12.272 6.772 1.287-3.182 2.409-6.449 3.353-9.79.15-.529-.393-.99-.89-.756-1.894.892-3.821 1.722-5.779 2.49-.427.167-.886-.16-.873-.619.074-2.815.271-5.6.584-8.349.063-.563-.576-.926-1.027-.582-.977.749-1.97 1.48-2.976 2.192-.357.251-.854.077-.983-.339-.906-2.926-1.947-5.792-3.121-8.59-.22-.525-.966-.525-1.187 0-1.172 2.798-2.215 5.664-3.12 8.59-.129.417-.626.591-.983.339-1.006-.712-1.999-1.443-2.976-2.192-.45-.345-1.091.018-1.026.582.313 2.75.509 5.534.583 8.349.012.459-.445.786-.874.619-1.958-.768-3.885-1.598-5.778-2.49-.498-.234-1.041.227-.891.756.953 3.374 2.087 6.671 3.39 9.881zm33.845 29.989c.448-.315.354-1.004-.16-1.198-1.616-.609-3.137-1.414-4.535-2.381-.05-.042-.082-.102-.082-.172 0-.093.058-.175.139-.207l-.002-.005c2.096-.86 4.156-1.79 6.175-2.79 2.623-1.304 5.181-2.723 7.661-4.254.471-.291.459-.98-.023-1.251-1.419-.799-2.816-1.632-4.19-2.501-.35-.221-.44-.69-.202-1.029 2.485-3.563 4.734-7.304 6.725-11.2.297-.581-.269-1.225-.887-1.014-3.971 1.357-8.058 2.461-12.245 3.29-.415.082-.813-.208-.86-.628-.146-1.295-.269-2.598-.363-3.909-.047-.643-.842-.913-1.269-.429-1.405 1.591-2.863 3.134-4.37 4.628-.555.55-1.117 1.094-1.686 1.63-.197.187-.398.37-.598.555-.621 1.293-1.433 3.09-2.173 5.063-.727 1.938-1.382 4.044-1.72 6.008-.152.885-.241 1.74-.241 2.538 0 2.221-1.092 4.184-2.767 5.389-.25.181-.514.346-.79.49-.337.176-.689.325-1.057.441v5.433h.002v7.253c0 .061.008.121.024.178.169.564.501 1.06.938 1.432.041.035.105.005.105-.049v-1.623c0-.048-.004-4.811-.015-6.829 2 .631 4.128.971 6.336.971 4.514-.001 8.698-1.419 12.13-3.83zm-21.563-8.315c-.008 0-.015 0-.022 0 0 0-.002 0-.003 0-1.891-.013-3.419-1.551-3.419-3.444 0-.011 0-.022 0-.035.015-1.475.957-2.729 2.271-3.205.366-.132.762-.205 1.173-.205.399 0 .784.069 1.142.194 1.331.467 2.288 1.729 2.303 3.216 0 .012.001.023.001.035-.001 1.901-1.544 3.444-3.446 3.444zm4.786-.941c0-.779.074-1.627.218-2.538.243-1.56.693-3.308 1.352-5.237-.508-.267-1.033-.501-1.571-.701-.421-.157-.85-.292-1.285-.407l-.328 1.65-.12.597c-.006.037-.039.063-.075.063-.004 0-.008 0-.011 0-.042-.006-.07-.043-.067-.084l.033-.399.161-1.927c-.948-.22-1.921-.338-2.898-.351l-.103 1.841c-.002.041-.037.074-.078.074s-.075-.033-.078-.074l-.103-1.841c-.965.013-1.926.127-2.863.342l.169 2.023.026.312c.004.042-.025.079-.066.084-.004 0-.008 0-.011 0-.037 0-.069-.025-.077-.063l-.1-.501-.35-1.756c-.464.121-.922.268-1.371.437-.517.194-1.021.42-1.51.677.585 1.724 1.085 3.528 1.355 5.242.138.878.217 1.73.217 2.538 0 2.613 2.114 4.739 4.721 4.765h.002.044c2.629-.001 4.767-2.139 4.767-4.766zm-7.894-9.934c.947-.208 1.916-.32 2.889-.335l-.043-.763-.13-2.352c-1.011.022-2.004.128-2.978.317l.17 2.035zm-4.226-.574c.238.591.474 1.206.703 1.837.321-.165.647-.317.979-.458.66-.277 1.338-.506 2.031-.684l-.243-1.22-.368-1.847c-1.218.3-2.402.734-3.546 1.297.069.162.138.326.207.494.078.191.157.384.237.581zm3.859-3.803c.993-.185 2.001-.292 3.012-.319l-.015-.262-.142-2.541c-1.046.029-2.077.132-3.091.305l.187 2.236zm7.06-.581.188-2.23c-1.026-.177-2.069-.282-3.128-.311l-.142 2.541-.015.262c1.033.025 2.05.132 3.049.321zm-3.297 3.86-.043.762c.985.016 1.967.132 2.926.344l.093-1.106.168-2.028c-.985-.192-1.99-.302-3.013-.324zm8.329-2.352c.338-.735.646-1.373.899-1.878-1.43-.694-2.908-1.226-4.431-1.589l-.391 1.959-.159.798c1.298.319 2.561.777 3.78 1.374.104-.229.204-.45.302-.664zm-1.948 4.719c.23-.634.482-1.287.753-1.957.029-.072.057-.142.086-.213.042-.102.083-.204.126-.303.061-.147.122-.294.184-.438-1.138-.56-2.314-.992-3.524-1.292l-.366 1.837-.244 1.23c.663.172 1.314.389 1.946.653.352.146.699.308 1.039.483zm-9.979 20.832c.054-.017.109-.031.164-.05v1.717c0 .061.007.12.024.178.021.066.043.133.068.196.182.482.482.905.867 1.233.034.028.08.014.099-.021.005-.011.01-.018.01-.032v-1.618c0-.012-.001-.163-.002-.383-.001-.388-.003-1-.008-1.509 0-.043-.001-.084-.001-.126v-3.64-1.821c-.336-.113-.661-.252-.971-.413-.048-.026-.097-.052-.145-.079-.224-.124-.439-.263-.646-.411-1.674-1.205-2.766-3.168-2.766-5.389 0-.798-.088-1.653-.24-2.538-.34-1.976-1.003-4.098-1.736-6.046-.707-1.883-1.479-3.604-2.086-4.877-.253-.233-.507-.465-.758-.702-.568-.537-1.13-1.08-1.686-1.63-1.507-1.494-2.964-3.037-4.369-4.628-.427-.483-1.222-.214-1.269.429-.095 1.311-.216 2.613-.363 3.909-.048.42-.447.71-.861.628-4.187-.829-8.275-1.933-12.246-3.29-.618-.211-1.183.433-.886 1.014 1.99 3.896 4.239 7.636 6.725 11.2.237.339.147.808-.203 1.029-1.374.869-2.771 1.702-4.191 2.501-.482.271-.493.96-.023 1.251 2.481 1.531 5.037 2.951 7.662 4.254 2.019 1.003 4.081 1.931 6.178 2.791l-.001.004c.081.032.138.114.138.207 0 .07-.032.13-.082.172-1.399.967-2.919 1.771-4.535 2.381-.513.194-.608.883-.16 1.198 3.433 2.411 7.616 3.829 12.13 3.829 2.148 0 4.217-.323 6.169-.918zm1.092 4.759c-.392.316-.756.663-1.092 1.036-.914 1.017-1.61 2.233-2.013 3.576-.028.094-.048.615-.06 1.113h1.539c.063 0 .081.096.022.123l-1.576.733c0 .052-.001.092-.001.112v.824h1.262c.069 0 .088.104.025.134l-1.287.598v2.3 1.379c0 .095.11.147.184.09.337-.276.653-.575.949-.894.406-.439.772-.915 1.091-1.427.434-.697.78-1.454 1.021-2.257.035-.117.056-.238.067-.361.005-.062.01-.127.01-.192v-6.821c0-.013-.005-.022-.01-.032-.023-.048-.085-.072-.131-.034zm-1.76-1.937c-.207-.13-.431-.237-.667-.316-.087-.027-.234-.046-.326-.046h-2.066c-.042 0-.067.051-.04.083.375.448.876.788 1.45.959.058.018.118.024.178.024h.636 1.48c.009 0 .016-.003.023-.007.037-.016.056-.063.026-.097-.009-.011-.018-.019-.026-.028-.194-.223-.419-.414-.668-.572zm.668 1.741c.013-.028.013-.056 0-.08-.013-.023-.033-.042-.063-.045-.784-.084-1.576-.066-2.356.045-1.073.156-2.123.495-3.101 1.021-.087.045-.469.4-.831.744l1.089 1.09c.044.044-.011.123-.071.102l-1.634-.596c-.037.036-.065.063-.08.079l-.583.582.893.893c.048.048-.012.134-.077.11l-1.333-.486-2.602 2.603c-.067.066-.027.183.067.192 1.842.185 3.729-.171 5.4-1.072.165-.088.313-.205.445-.338l2.491-2.489 2.333-2.333c.008-.007.009-.015.013-.022z" fill="#aa1527"/><path d="m71.344 95.564c-.19.068-.39.104-.593.104s-.402-.036-.593-.104l-.565-.202c-.76-.273-7.648-2.832-15.346-8.5-4.462-3.283-8.376-7-11.634-11.047-4.07-5.054-7.128-10.646-9.088-16.615-1.765-5.378-2.66-11.132-2.66-17.101l.004-16.814c0-1.246.001-2.068.881-3.046 9.493-10.627 23.707-16.731 38.997-16.747v-.583l.004.583c15.295.016 29.515 6.124 39.012 16.757l.049.057c.821.961.822 1.764.822 2.979l.004 16.813c0 5.969-.896 11.723-2.66 17.101-1.96 5.97-5.018 11.562-9.088 16.615-3.258 4.047-7.172 7.764-11.634 11.047-7.697 5.668-14.587 8.227-15.347 8.5zm43.463-70.282c-.002-1.416-.003-3.557-1.828-5.694l-.104-.119c-10.288-11.517-25.645-18.132-42.133-18.15-16.475.018-31.819 6.625-42.095 18.128-1.95 2.166-1.951 4.375-1.952 5.836l-.003 16.815c0 6.412.965 12.604 2.868 18.402 2.117 6.45 5.415 12.484 9.803 17.931 3.483 4.327 7.658 8.295 12.41 11.792 8.176 6.017 15.59 8.77 16.409 9.064l.565.203c.645.231 1.319.349 2.004.349s1.359-.117 2.005-.349l.565-.203c.818-.295 8.238-3.052 16.408-9.064 4.751-3.497 8.927-7.465 12.41-11.792 4.387-5.447 7.686-11.481 9.803-17.931 1.903-5.799 2.868-11.992 2.868-18.403zm-33.328 13.471c.009-.068.019-.136.019-.207 0-.261-.064-.517-.17-.743-.352-.618-.748-1.207-1.198-1.751-.166-.202-.342-.396-.521-.586-.026-.027-.051-.055-.077-.082v.004c-.028-.03-.058-.058-.085-.088-.135-.138-.274-.273-.416-.405-.058-.053-.112-.105-.17-.157-.195-.174-.395-.344-.6-.506-.206-.161-.419-.314-.635-.462-.064-.044-.13-.086-.194-.128-.162-.106-.327-.21-.496-.309-.066-.04-.133-.08-.2-.118-.23-.129-.462-.254-.7-.369-.238-.114-.481-.219-.728-.318-.073-.029-.147-.056-.221-.084-.184-.07-.37-.136-.559-.197-.075-.024-.15-.049-.227-.072-.257-.078-.516-.149-.78-.21-.263-.061-.53-.11-.8-.153-.079-.013-.16-.023-.24-.035-.2-.028-.404-.051-.608-.069-.081-.007-.163-.015-.245-.021-.277-.019-.557-.031-.839-.031-.272 0-.542.012-.811.029-.082.006-.163.014-.245.021-.19.017-.38.037-.568.062-.086.012-.172.023-.259.037-.202.031-.403.068-.602.11-.059.013-.119.022-.178.036-.254.057-.505.122-.753.195-.061.018-.119.038-.179.057-.189.058-.377.122-.563.189-.08.029-.159.06-.238.09-.172.067-.341.138-.509.213-.071.032-.142.062-.212.094-.231.108-.459.221-.683.343-.008.004-.015.009-.023.014-.215.118-.425.244-.633.375-.066.042-.131.086-.196.129-.152.1-.3.202-.447.309-.067.048-.134.097-.2.147-.159.12-.313.244-.466.372-.042.036-.087.069-.128.106-.191.165-.377.335-.558.511-.044.043-.087.089-.131.133-.068.069-.136.137-.202.206-.066.071-.131.142-.196.213-.056.062-.111.125-.165.188-.049.056-.101.11-.148.167 0 0 .003.004.004.006-.439.525-.837 1.084-1.184 1.679-.143.252-.23.555-.23.863 0 .063.009.123.016.185.077.495.234.986.479 1.464 1.566-.763 3.19-1.343 4.862-1.735l-.395-1.98c-.008-.039.014-.076.05-.089l1.543-.53c.023-.008.048-.005.068.008s.032.035.035.059l.187 2.237c1.03-.17 2.075-.273 3.135-.304l-.139-2.487c-.001-.021.006-.042.021-.058s.036-.024.057-.024h1.558c.021 0 .042.009.058.024.014.015.021.036.021.058l-.139 2.487c1.072.032 2.13.136 3.172.31l.186-2.243c.003-.024.016-.046.036-.059s.045-.016.067-.008l1.543.53c.038.013.06.05.051.089l-.396 1.988c1.663.393 3.279.972 4.839 1.733.244-.477.399-.962.478-1.452zm-15.732 1.237c-1.53.362-3.017.895-4.453 1.592.25.499.554 1.126.886 1.848.103.223.208.455.315.694 1.213-.591 2.489-1.051 3.802-1.37l-.159-.795zm-7.257-3.873c.841-2.596 3.318-4.755 6.637-5.923.047-.028.093-.059.141-.086 1.247-.415 2.606-.691 4.038-.799.013.001.026.004.039.006.475-.038.958-.06 1.447-.06 5.96 0 10.953 2.889 12.272 6.772 1.287-3.182 2.41-6.449 3.353-9.79.15-.53-.393-.99-.89-.756-1.894.891-3.821 1.722-5.778 2.489-.428.167-.887-.16-.874-.619.074-2.814.271-5.599.584-8.348.063-.563-.576-.927-1.026-.582-.978.75-1.969 1.48-2.977 2.192-.357.251-.854.077-.983-.339-.906-2.926-1.947-5.792-3.121-8.591-.22-.524-.966-.524-1.186 0-1.173 2.798-2.215 5.665-3.121 8.591-.129.417-.626.591-.983.339-1.006-.712-1.999-1.443-2.976-2.192-.45-.345-1.091.019-1.026.582.313 2.749.509 5.534.583 8.348.012.459-.445.787-.873.619-1.958-.768-3.885-1.599-5.778-2.489-.499-.234-1.041.226-.892.756.953 3.373 2.087 6.67 3.39 9.88zm33.845 29.989c.449-.316.354-1.003-.16-1.197-1.616-.609-3.136-1.414-4.535-2.383-.05-.04-.082-.101-.082-.17 0-.095.058-.175.139-.209l-.002-.004c2.096-.86 4.156-1.788 6.175-2.79 2.625-1.303 5.181-2.723 7.661-4.253.471-.291.459-.98-.023-1.251-1.419-.799-2.816-1.633-4.19-2.501-.35-.221-.44-.69-.202-1.03 2.485-3.563 4.734-7.304 6.725-11.199.297-.581-.269-1.225-.887-1.014-3.971 1.358-8.058 2.461-12.245 3.29-.415.082-.813-.208-.86-.628-.146-1.295-.269-2.598-.363-3.909-.047-.643-.842-.912-1.269-.429-1.405 1.591-2.862 3.134-4.368 4.627-.557.55-1.119 1.094-1.687 1.631-.198.187-.399.37-.599.554-.621 1.294-1.433 3.091-2.173 5.063-.727 1.938-1.382 4.044-1.72 6.008-.151.884-.241 1.739-.241 2.537 0 2.221-1.092 4.186-2.767 5.391-.25.181-.514.344-.79.489-.336.175-.689.324-1.057.441v5.433l.002.001v7.252c0 .061.008.12.025.178.168.563.5 1.06.937 1.432.041.036.106.005.106-.049v-1.623c0-.048-.005-4.81-.016-6.827 2 .628 4.128.968 6.336.968 4.514-.001 8.698-1.417 12.13-3.829zm-21.563-8.314c-.008 0-.015 0-.022 0 0 0-.002 0-.003 0-1.891-.014-3.419-1.55-3.419-3.444 0-.012.001-.023.001-.035.015-1.475.956-2.729 2.271-3.205.366-.133.761-.206 1.173-.206.4 0 .784.069 1.142.194 1.331.467 2.288 1.729 2.303 3.216 0 .012.001.023.001.035-.002 1.902-1.545 3.445-3.447 3.445zm4.787-.943c0-.778.073-1.626.217-2.537.244-1.56.693-3.309 1.352-5.238-.508-.267-1.033-.5-1.571-.7-.421-.157-.85-.293-1.285-.408l-.328 1.65-.12.598c-.006.037-.039.063-.075.063-.004 0-.007 0-.011-.001-.042-.005-.07-.042-.067-.083l.033-.399.161-1.927c-.948-.22-1.921-.338-2.898-.352l-.103 1.841c-.002.042-.036.074-.078.074-.041 0-.075-.032-.078-.074l-.103-1.841c-.965.013-1.925.128-2.863.342l.169 2.024.026.312c.003.042-.026.079-.067.083-.003 0-.008.001-.011.001-.037 0-.069-.025-.076-.063l-.101-.502-.35-1.755c-.464.121-.922.267-1.371.437-.517.195-1.021.421-1.51.677.585 1.724 1.085 3.528 1.355 5.242.138.877.217 1.73.217 2.537 0 2.613 2.114 4.74 4.721 4.767h.002.043c2.631-.001 4.77-2.139 4.77-4.768zm-7.895-9.933c.947-.208 1.916-.319 2.889-.335l-.043-.762-.13-2.352c-1.011.022-2.004.128-2.978.316l.17 2.036zm-4.226-.574c.238.591.474 1.206.703 1.837.321-.165.648-.317.979-.458.66-.277 1.338-.506 2.031-.684l-.243-1.22-.368-1.848c-1.218.301-2.402.734-3.546 1.297.069.162.138.326.207.494.079.192.157.386.237.582zm3.859-3.803c.993-.186 2.001-.293 3.012-.319l-.014-.262-.142-2.542c-1.046.029-2.078.132-3.092.306l.188 2.236zm7.06-.581.188-2.23c-1.026-.178-2.069-.282-3.128-.312l-.142 2.542-.015.262c1.033.025 2.05.133 3.049.321zm-3.297 3.86-.042.762c.986.016 1.966.131 2.925.344l.093-1.106.169-2.028c-.986-.193-1.991-.302-3.014-.325zm8.329-2.353c.338-.734.646-1.372.899-1.878-1.43-.694-2.908-1.226-4.431-1.589l-.391 1.96-.159.798c1.298.319 2.561.777 3.78 1.374.104-.229.205-.45.302-.665zm-1.948 4.72c.23-.634.482-1.287.754-1.958.028-.071.056-.141.085-.212.042-.102.084-.203.126-.303.061-.148.122-.294.184-.438-1.137-.561-2.314-.992-3.523-1.292l-.367 1.837-.244 1.229c.663.172 1.314.39 1.947.653.351.147.698.309 1.038.484zm-9.979 20.832c.055-.018.109-.032.164-.05v1.717c0 .06.008.119.024.177.021.067.043.134.068.199.182.48.482.902.867 1.231.033.029.08.014.099-.021.005-.009.01-.019.01-.032v-1.617c0-.014 0-.162-.001-.384-.001-.388-.004-1.001-.008-1.509 0-.042-.001-.084-.001-.125v-3.641-1.822c-.336-.111-.661-.25-.971-.412-.048-.026-.096-.052-.145-.079-.224-.125-.439-.262-.646-.41-1.674-1.205-2.766-3.169-2.766-5.391 0-.798-.088-1.653-.24-2.537-.34-1.977-1.003-4.098-1.735-6.046-.708-1.883-1.48-3.604-2.087-4.876-.253-.234-.507-.466-.758-.702-.569-.537-1.131-1.081-1.686-1.631-1.507-1.494-2.964-3.037-4.369-4.627-.427-.483-1.222-.214-1.268.429-.095 1.311-.217 2.614-.363 3.909-.048.42-.446.71-.861.628-4.187-.829-8.275-1.932-12.246-3.29-.618-.211-1.182.433-.885 1.014 1.989 3.896 4.239 7.636 6.725 11.199.237.339.147.809-.203 1.03-1.374.868-2.771 1.702-4.191 2.501-.482.271-.493.96-.023 1.251 2.481 1.53 5.037 2.951 7.662 4.253 2.02 1.003 4.082 1.931 6.178 2.792l-.001.002c.082.034.139.114.139.209 0 .069-.032.13-.082.17-1.399.969-2.919 1.772-4.536 2.383-.513.194-.608.881-.159 1.197 3.433 2.412 7.615 3.828 12.129 3.828 2.145-0 4.215-.322 6.166-.917zm1.092 4.759c-.391.316-.756.663-1.092 1.038-.914 1.016-1.61 2.23-2.013 3.575-.028.094-.048.614-.06 1.113h1.539c.063 0 .08.094.022.121l-1.577.734c0 .053-.001.093-.001.112v.824h1.262c.068 0 .087.104.024.133l-1.287.6v2.299 1.38c0 .095.11.148.184.089.337-.276.653-.575.949-.895.407-.438.772-.915 1.091-1.425.434-.697.78-1.454 1.021-2.259.035-.116.056-.238.067-.359.005-.063.01-.128.01-.192v-6.82c0-.015-.005-.023-.01-.033-.021-.049-.083-.072-.129-.035zm-1.76-1.938c-.207-.13-.431-.238-.667-.314-.087-.03-.234-.048-.326-.048h-2.066c-.043 0-.068.052-.04.084.375.449.876.787 1.45.958.058.018.118.025.178.025h.635 1.48c.009 0 .016-.004.023-.007.037-.016.056-.063.026-.097-.008-.011-.018-.02-.026-.03-.192-.22-.418-.413-.667-.571zm.668 1.742c.013-.026.013-.056 0-.08-.013-.022-.033-.04-.063-.045-.783-.084-1.576-.067-2.356.045-1.073.156-2.123.496-3.101 1.021-.087.047-.469.402-.831.745l1.089 1.089c.044.044-.011.124-.071.102l-1.634-.595c-.037.035-.065.064-.08.078l-.583.583.893.893c.048.048-.012.135-.077.11l-1.333-.485-2.602 2.602c-.066.066-.027.183.067.192 1.842.185 3.729-.172 5.4-1.072.165-.088.313-.205.445-.337l2.491-2.491 2.333-2.331c.008-.009.009-.019.013-.024z" fill="#cf202e"/></svg>