<svg height="266.133" viewBox="0 0 326.229 266.133" width="326.229" xmlns="http://www.w3.org/2000/svg"><g fill="#fff"><path d="m14.534 166.185a13.027 13.027 0 0 1 -6.734 1.815c-4.793 0-7.8-2.9-7.8-8.11 0-5.233 3.006-8.187 8.059-8.187a12.9 12.9 0 0 1 5.907 1.424l-1.266 3.162a15.891 15.891 0 0 0 -4.432-.8c-2.617 0-3.988 1.476-3.988 4.4 0 2.592 1.476 4.327 3.729 4.327a12.433 12.433 0 0 0 5.157-1.165z" transform="translate(0 93.858)"/><path d="m21.493 164.711a9.087 9.087 0 0 1 -5.777 2.022c-3.835 0-6.323-2.151-6.323-6.4 0-4.353 2.435-6.58 6.347-6.58 3.524 0 5.8 2.046 5.831 6.01a13.631 13.631 0 0 1 -.1 1.685h-8.09a2.315 2.315 0 0 0 2.514 2.072 8.5 8.5 0 0 0 4.43-1.14zm-3.472-5.725c-.1-1.633-.934-2.358-2.281-2.358-1.373 0-2.15.751-2.383 2.358z" transform="translate(5.811 95.126)"/><path d="m22.162 155.617a6.031 6.031 0 0 1 4.12-1.865c2.668 0 3.938 1.424 3.938 4.793v7.955h-4.145v-6.79c0-1.53-.259-2.1-1.45-2.1a3.177 3.177 0 0 0 -2.462 1.426v7.464h-4.146v-12.515h4.145z" transform="translate(11.147 95.126)"/><path d="m35.824 166.8a8 8 0 0 1 -3.627.853c-2.928 0-4.147-1.347-4.147-4.765v-4.536h-1.762v-3.393h1.761v-2.773h4.151v2.773h3.056v3.393h-3.056v4.348c0 1.115.337 1.659 1.552 1.659.6 0 .986 0 1.685-.052z" transform="translate(16.264 94.155)"/><path d="m44.661 164.711a9.087 9.087 0 0 1 -5.777 2.022c-3.835 0-6.323-2.151-6.323-6.4 0-4.353 2.435-6.58 6.347-6.58 3.524 0 5.8 2.046 5.831 6.01a13.631 13.631 0 0 1 -.1 1.685h-8.09a2.315 2.315 0 0 0 2.514 2.072 8.506 8.506 0 0 0 4.43-1.14zm-3.472-5.725c-.1-1.633-.934-2.358-2.281-2.358-1.373 0-2.15.751-2.383 2.358z" transform="translate(20.145 95.126)"/><path d="m45.33 156.29c.855-1.658 1.891-2.538 3.343-2.538a12.288 12.288 0 0 1 1.554.078l-.285 4.17c-.622-.053-1.036-.053-1.476-.053a2.833 2.833 0 0 0 -3.135 2.307v6.246h-4.146v-12.515h4.145z" transform="translate(25.481 95.126)"/><path d="m59.372 153.8c-.6-.026-1.062-.052-1.633-.052-1.293 0-1.658.673-1.658 1.735v.39h3.187v3.393h-3.187v9.121h-4.144v-9.117h-1.637v-3.393h1.633v-.39c0-3.341 1.58-4.793 5.026-4.793a12.559 12.559 0 0 1 2.694.285z" transform="translate(31.123 93.234)"/><path d="m69.384 160.306c0 4.094-2.41 6.426-6.53 6.426-4.092 0-6.5-2.333-6.5-6.426 0-4.2 2.41-6.554 6.5-6.554 4.12 0 6.53 2.357 6.53 6.554zm-4.068 0c0-2.409-.881-3.265-2.462-3.265-1.554 0-2.435.856-2.435 3.265 0 2.307.856 3.135 2.435 3.135s2.462-.828 2.462-3.135z" transform="translate(34.865 95.126)"/><path d="m69.635 156.29c.855-1.658 1.891-2.538 3.341-2.538a12.263 12.263 0 0 1 1.554.078l-.285 4.17c-.62-.053-1.034-.053-1.476-.053a2.832 2.832 0 0 0 -3.134 2.307v6.246h-4.147v-12.515h4.147z" transform="translate(40.517 95.126)"/><path d="m75.36 167.668v-15.8h4.223v15.8z" transform="translate(46.625 93.957)"/><path d="m83.825 155.617a6.031 6.031 0 0 1 4.12-1.865c2.669 0 3.938 1.424 3.938 4.793v7.955h-4.145v-6.79c0-1.53-.259-2.1-1.45-2.1a3.177 3.177 0 0 0 -2.462 1.426v7.464h-4.146v-12.515h4.145z" transform="translate(49.298 95.126)"/><path d="m96.963 166.615a4.512 4.512 0 0 1 -3.733 1.633c-2.616 0-4.974-1.918-4.974-6.608 0-4.482 1.84-6.373 4.715-6.373a5.114 5.114 0 0 1 3.992 1.709v-5.676h4.144v16.713h-4.144zm0-6.476a3.058 3.058 0 0 0 -2.514-1.424c-1.348 0-2.124.829-2.124 2.927 0 2.281.9 3.213 2.253 3.213a2.64 2.64 0 0 0 2.384-1.347z" transform="translate(54.604 93.61)"/><path d="m99.949 150.342a2.122 2.122 0 1 1 -2.333 2.1 2.116 2.116 0 0 1 2.333-2.1zm-2.075 18.267v-12.514h4.147v12.514z" transform="translate(60.395 93.016)"/><path d="m114.331 164.322c0 4.767-2.177 6.685-6.349 6.685a14.782 14.782 0 0 1 -5.518-1.062l.544-2.825a20.634 20.634 0 0 0 4.4.751c1.868 0 2.773-.881 2.773-3.55v-.078a4.208 4.208 0 0 1 -3.885 1.711c-2.9 0-4.795-1.97-4.795-6.012 0-4.3 1.658-6.192 4.715-6.192a5.891 5.891 0 0 1 3.964 1.632v-1.4h4.147zm-4.147-5.7a3.009 3.009 0 0 0 -2.484-1.422c-1.4 0-2.124.7-2.124 2.745 0 2.124.881 2.823 2.253 2.823a2.571 2.571 0 0 0 2.357-1.373z" transform="translate(62.8 95.126)"/><path d="m122.563 164.711a9.084 9.084 0 0 1 -5.777 2.022c-3.835 0-6.323-2.151-6.323-6.4 0-4.353 2.436-6.58 6.349-6.58 3.524 0 5.8 2.046 5.829 6.01a13.32 13.32 0 0 1 -.1 1.685h-8.084a2.312 2.312 0 0 0 2.512 2.072 8.512 8.512 0 0 0 4.432-1.14zm-3.472-5.725c-.1-1.633-.932-2.358-2.279-2.358-1.374 0-2.15.751-2.384 2.358z" transform="translate(68.343 95.126)"/><path d="m123.234 155.617a6.031 6.031 0 0 1 4.12-1.865c2.669 0 3.938 1.424 3.938 4.793v7.955h-4.145v-6.79c0-1.53-.259-2.1-1.45-2.1a3.177 3.177 0 0 0 -2.462 1.426v7.464h-4.146v-12.515h4.146z" transform="translate(73.679 95.126)"/><path d="m140.7 160.306c0 4.094-2.41 6.426-6.53 6.426-4.094 0-6.5-2.333-6.5-6.426 0-4.2 2.41-6.554 6.5-6.554 4.117 0 6.53 2.357 6.53 6.554zm-4.069 0c0-2.409-.881-3.265-2.46-3.265-1.554 0-2.435.856-2.435 3.265 0 2.307.855 3.135 2.435 3.135s2.456-.828 2.456-3.135z" transform="translate(78.985 95.126)"/><path d="m144.836 164.932c-1.58 1.038-2.488 1.711-4.016 1.711-2.643 0-4.068-1.426-4.068-4.819v-7.924h4.148v6.865c0 1.53.285 2.125 1.45 2.125a3.257 3.257 0 0 0 2.488-1.452v-7.538h4.145v12.51h-4.145z" transform="translate(84.608 95.215)"/><path d="m155.073 157.569a20.241 20.241 0 0 0 -4.351-.751c-.544 0-.881.233-.881.7 0 .777 1.088.881 3.108 1.452 2.436.673 3.368 1.476 3.368 3.628 0 2.693-1.813 4.145-5.235 4.145a12.086 12.086 0 0 1 -5.6-1.476l.986-2.773a16.5 16.5 0 0 0 4.663 1.165c.7 0 1.036-.207 1.036-.622 0-.647-.906-.751-2.8-1.347-2.334-.727-3.422-1.918-3.422-3.679 0-2.643 1.607-4.275 4.484-4.275a18.056 18.056 0 0 1 5.648.984z" transform="translate(90.012 95.116)"/><path d="m166.982 167.668v-6.038h-5.96v6.038h-4.222v-15.8h4.222v5.932h5.96v-5.932h4.218v15.8z" transform="translate(97.012 93.957)"/><path d="m178.947 164.711a9.088 9.088 0 0 1 -5.777 2.022c-3.835 0-6.323-2.151-6.323-6.4 0-4.353 2.436-6.58 6.348-6.58 3.522 0 5.8 2.046 5.829 6.01a13.623 13.623 0 0 1 -.1 1.685h-8.084a2.313 2.313 0 0 0 2.512 2.072 8.512 8.512 0 0 0 4.432-1.14zm-3.472-5.725c-.1-1.633-.932-2.358-2.279-2.358-1.374 0-2.151.751-2.384 2.358z" transform="translate(103.228 95.126)"/><path d="m176.289 154.684a20.655 20.655 0 0 1 5.466-.932c3.653 0 5.131 1.528 5.131 5.156v7.592h-4.042v-1.478a4.943 4.943 0 0 1 -3.655 1.711c-2.642 0-4.12-.986-4.12-3.938 0-2.669 1.763-3.886 5.287-3.886h2.488c0-1.4-.388-1.97-1.866-1.97a20.166 20.166 0 0 0 -4.068.544zm4.612 6.425c-1.322 0-2.048.13-2.048 1.191a1.479 1.479 0 0 0 1.685 1.478 3.067 3.067 0 0 0 2.307-1.088v-1.581z" transform="translate(108.315 95.126)"/><path d="m183.727 168.015v-16.715h4.145v16.713z" transform="translate(113.671 93.61)"/><path d="m196.7 166.8a8 8 0 0 1 -3.629.853c-2.927 0-4.146-1.347-4.146-4.765v-4.536h-1.761v-3.393h1.761v-2.773h4.146v2.773h3.058v3.393h-3.058v4.348c0 1.115.337 1.659 1.554 1.659.6 0 .986 0 1.685-.052z" transform="translate(115.799 94.155)"/><path d="m198.146 157.417a5.316 5.316 0 0 1 4.118-2.15c2.669 0 3.938 1.424 3.938 4.793v7.954h-4.144v-6.53c0-1.528-.261-2.1-1.452-2.1a3.207 3.207 0 0 0 -2.46 1.45v7.177h-4.146v-16.711h4.147z" transform="translate(120.026 93.61)"/><path d="m107.313 17.94c2.342-4.688.953-11.566-3.7-14.223 2.255 3.645-1.57 10.241-3.814 9.458 1.747-2.507 1.313-4.592.652-5.635a10.255 10.255 0 0 1 -2 3.765c-3.315 4.238-3.21 7.684 1.2 9.2 5.2 1.8 4.3 5.4 3.815 6.671 8.019-3.789 11.939-11.085 7.864-18.019.955 3.772-1.926 9.45-4.016 8.781" transform="translate(59.478 2.3)"/><path d="m146.215 3.417-.055-.034-.342-.079a150.356 150.356 0 0 0 -62.737.01l-.05.013-.049.01a3.873 3.873 0 0 0 -2.951 3.763v5.589c0 40.289 24.928 56.632 32.568 60.68a3.993 3.993 0 0 0 1.876.49 3.881 3.881 0 0 0 1.865-.5c7.621-4.037 32.558-20.386 32.558-60.677v-5.582a3.875 3.875 0 0 0 -2.687-3.679m-55.123 45.318q-.486-.862-.955-1.76a31.462 31.462 0 0 1 11.023-8.726 30.756 30.756 0 0 0 -7.97 10.486zm10.412 13.161h-.431a60.455 60.455 0 0 1 -7.4-8.985c.257-.722.523-1.434.821-2.122h8.372a74.746 74.746 0 0 0 -1.362 11.107m-6.062-13.16c3.176-6.2 7.972-10.755 13.55-12.59-2.357 2.69-4.312 7.077-5.654 12.59zm18 22.516a52.867 52.867 0 0 1 -9.974-7.09c0-.071 0-.142.006-.215h9.968zm0-9.356h-9.889a72.023 72.023 0 0 1 1.384-11.107h8.5zm0-13.16h-8.024c1.917-7.6 4.966-12.459 8.024-13.356zm2.051 22.519v-7.309h9.97v.219a52.943 52.943 0 0 1 -9.974 7.09m8.515-20.468a72.027 72.027 0 0 1 1.38 11.109h-9.889v-11.109zm-8.506-2.053v-13.353c3.059.9 6.107 5.751 8.022 13.354zm4.455-12.592c5.576 1.837 10.374 6.394 13.548 12.592h-7.897c-1.344-5.513-3.3-9.9-5.654-12.592m7.919 25.754h-.431a75.175 75.175 0 0 0 -1.363-11.107h8.37c.3.69.563 1.4.821 2.127a60.448 60.448 0 0 1 -7.4 8.981m9.982-13.16h-2.104a30.7 30.7 0 0 0 -7.957-10.483 31.456 31.456 0 0 1 11.017 8.721q-.466.9-.952 1.76m8.8-36.055c0 13.231-2.812 23.86-6.844 32.287a33.13 33.13 0 0 0 -25.334-11.794h-.006a33.124 33.124 0 0 0 -25.334 11.79c-4.031-8.43-6.842-19.052-6.842-32.283v-5.588a1.612 1.612 0 0 1 1.222-1.565l.045-.011a147.9 147.9 0 0 1 61.794-.01l.021.01a1.605 1.605 0 0 1 1.28 1.58z" transform="translate(49.515)"/><path d="m14.728 60.314c0-5.4-.484-5.989-3.359-6.234l-1.214-.1c-.293-.194-.2-1.072.1-1.217 2.821.1 4.476.146 6.52.146 1.949 0 3.6-.049 5.551-.146.291.146.388 1.023.1 1.217l-.73.1c-2.872.392-2.969 1.07-2.969 6.234v18.059c0 3.843-.2 7.2-1.119 9.44-1.609 3.9-5.063 7.011-9.592 7.011-.581 0-2.09-.05-2.09-1.021 0-.829.727-2.242 1.75-2.242a5.974 5.974 0 0 1 1.8.293 7.5 7.5 0 0 0 2.043.342 2.079 2.079 0 0 0 1.949-1.267c1.119-2.289 1.263-9.588 1.263-12.216z" transform="translate(3.663 32.647)"/><path d="m16.05 70.051a14.2 14.2 0 0 1 14.618-14.5c9.486 0 14.249 6.858 14.249 14.084a14.019 14.019 0 0 1 -14.249 14.334c-9.113 0-14.618-6.525-14.618-13.918m24.761.863c0-6.774-3-14.086-10.839-14.086-4.273 0-9.814 2.917-9.814 11.91 0 6.075 2.957 13.961 11.044 13.961 4.929 0 9.609-3.7 9.609-11.786" transform="translate(9.93 34.372)"/><path d="m43.11 69.847c-1.972 0-2.054.084-2.054 1.316v5.788c0 4.311.206 4.885 2.506 5.133l1.19.123c.248.165.163.9-.081 1.026-2.219-.083-3.615-.123-5.217-.123-1.764 0-3.16.083-4.761.123a.8.8 0 0 1 -.084-1.026l.7-.123c2.3-.411 2.383-.822 2.383-5.133v-14.783c0-4.311-.287-5.008-2.422-5.173l-1.07-.081c-.246-.167-.162-.9.084-1.028 2.012.039 3.407.123 5.172.123 1.6 0 3-.04 4.764-.123.246.123.33.861.081 1.028l-.78.081c-2.379.246-2.462.863-2.462 5.173v4.725c0 1.271.083 1.313 2.054 1.313h11.741c1.972 0 2.056-.042 2.056-1.313v-4.725c0-4.311-.084-4.927-2.507-5.173l-.779-.081c-.248-.167-.167-.9.081-1.028 1.887.083 3.284.123 4.969.123 1.6 0 3-.04 4.845-.123.243.123.327.861.084 1.028l-.866.081c-2.378.246-2.462.863-2.462 5.173v14.784c0 4.311.084 4.845 2.462 5.133l.986.123c.246.165.163.9-.084 1.026-1.968-.083-3.364-.123-4.965-.123-1.685 0-3.161.04-4.969.123a.794.794 0 0 1 -.081-1.026l.779-.123c2.507-.411 2.507-.822 2.507-5.133v-5.789c0-1.232-.084-1.316-2.056-1.316z" transform="translate(21.066 34.576)"/><path d="m79.838 76.129c0 1.233 0 6.119.118 7.185a.731.731 0 0 1 -.777.45c-.492-.694-1.685-2.132-5.256-6.2l-9.523-10.838c-1.107-1.274-3.9-4.641-4.764-5.541h-.078a10.169 10.169 0 0 0 -.209 2.666v8.949c0 1.928.04 7.268.74 8.5.248.455 1.068.7 2.1.782l1.272.123a.751.751 0 0 1 -.084 1.026c-1.849-.083-3.284-.123-4.8-.123-1.726 0-2.833.04-4.272.123a.765.765 0 0 1 -.083-1.026l1.11-.123c.944-.123 1.6-.371 1.808-.822.57-1.476.531-6.486.531-8.458v-11.864a3.761 3.761 0 0 0 -.9-2.957 4.448 4.448 0 0 0 -2.548-.986l-.7-.081a.719.719 0 0 1 .084-1.028c1.724.123 3.9.123 4.638.123a13.213 13.213 0 0 0 1.891-.123c.819 2.095 5.665 7.516 7.022 9.036l3.975 4.478c2.829 3.161 4.842 5.461 6.773 7.433h.084a4.121 4.121 0 0 0 .165-1.726v-8.792c0-1.929-.042-7.266-.824-8.5-.246-.369-.9-.617-2.546-.821l-.7-.081c-.286-.246-.244-.9.083-1.028 1.889.083 3.284.123 4.846.123 1.764 0 2.829-.04 4.226-.123a.719.719 0 0 1 .084 1.028l-.575.081c-1.313.2-2.135.534-2.3.863-.7 1.476-.613 6.569-.613 8.458z" transform="translate(33.001 34.576)"/><path d="m79.288 83.969a12.813 12.813 0 0 1 -6.407-1.517 18.9 18.9 0 0 1 -1.11-5.748c.206-.29.824-.371.987-.123.615 2.091 2.3 6.119 7.062 6.119 3.448 0 5.133-2.261 5.133-4.722 0-1.808-.367-3.82-3.37-5.751l-3.9-2.546c-2.053-1.353-4.434-3.7-4.434-7.061 0-3.9 3.04-7.064 8.377-7.064a15.939 15.939 0 0 1 3.82.534 5.375 5.375 0 0 0 1.433.246 17.9 17.9 0 0 1 .743 5.01c-.165.248-.822.369-1.029.123-.531-1.972-1.64-4.641-5.585-4.641-4.024 0-4.887 2.669-4.887 4.561 0 2.379 1.973 4.1 3.493 5.049l3.286 2.053c2.587 1.6 5.133 3.984 5.133 7.883 0 4.518-3.407 7.595-8.744 7.595" transform="translate(44.404 34.372)"/><path d="m100.979 69.321c-2.336 0-2.433.092-2.433 1.554v6.863c0 5.109.24 5.792 2.965 6.085l1.416.149c.29.193.193 1.07-.1 1.212-2.626-.1-4.28-.142-6.179-.142-2.095 0-3.751.1-5.648.142a.933.933 0 0 1 -.1-1.212l.826-.149c2.726-.487 2.825-.976 2.825-6.085v-17.524c0-5.11-.342-5.939-2.872-6.132l-1.266-.1c-.291-.194-.194-1.072.1-1.217 2.384.049 4.04.146 6.135.146 1.9 0 3.553-.049 5.644-.146.293.146.39 1.023.1 1.217l-.924.1c-2.82.293-2.917 1.021-2.917 6.132v5.6c0 1.509.1 1.556 2.433 1.556h13.916c2.336 0 2.433-.047 2.433-1.556v-5.6c0-5.11-.1-5.839-2.97-6.132l-.926-.1c-.291-.194-.194-1.072.1-1.217 2.234.1 3.893.146 5.887.146 1.9 0 3.556-.049 5.745-.146.291.146.392 1.023.1 1.217l-1.023.1c-2.82.293-2.92 1.021-2.92 6.132v17.524c0 5.109.1 5.745 2.92 6.085l1.17.149c.29.193.194 1.07-.1 1.212-2.333-.1-3.99-.142-5.889-.142-1.994 0-3.746.045-5.887.142a.937.937 0 0 1 -.1-1.212l.926-.149c2.97-.487 2.97-.976 2.97-6.085v-6.863c0-1.462-.1-1.554-2.433-1.554z" transform="translate(55.83 32.647)"/><path d="m111.779 70.051a14.2 14.2 0 0 1 14.617-14.5c9.487 0 14.249 6.858 14.249 14.084a14.018 14.018 0 0 1 -14.245 14.334c-9.113 0-14.617-6.525-14.617-13.918m24.758.863c0-6.774-2.993-14.086-10.84-14.086-4.267 0-9.811 2.917-9.811 11.91 0 6.075 2.957 13.961 11.044 13.961 4.929 0 9.607-3.7 9.607-11.786" transform="translate(69.157 34.372)"/><path d="m136.866 76.952c0 4.311.084 4.845 2.71 5.133l1.11.123a.8.8 0 0 1 -.084 1.026c-2.339-.083-3.692-.123-5.337-.123-1.724 0-3.2.04-5.008.123a.794.794 0 0 1 -.081-1.026l.863-.123c2.378-.327 2.462-.822 2.462-5.133v-15.152c0-3.493-.084-4.189-1.931-4.395l-1.478-.167a.682.682 0 0 1 .084-1.025 64.219 64.219 0 0 1 8.127-.33c3.409 0 5.955.452 7.886 1.643a7.1 7.1 0 0 1 3.284 6.159 6.957 6.957 0 0 1 -4.107 6.53 13.835 13.835 0 0 1 -5.667 1.232c-.288-.12-.288-.738-.04-.819 4.434-.822 6.035-3.328 6.035-6.9 0-3.984-2.339-6.569-6.609-6.569-2.176 0-2.219.162-2.219 1.479z" transform="translate(80.368 34.575)"/><path d="m146.15 62.168c0-4.312-.084-4.969-2.464-5.173l-1.03-.081c-.243-.167-.16-.9.084-1.028 2.012.083 3.325.123 5.173.123 1.6 0 3-.04 4.765-.123.243.123.327.861.079 1.028l-.779.081c-2.383.246-2.467.861-2.467 5.173v4.725c0 .779.084 1.557.539 1.557a2.321 2.321 0 0 0 1.15-.45c.575-.49 1.645-1.56 2.095-1.972l4.435-4.392c.779-.741 2.794-2.834 3.2-3.407a1.217 1.217 0 0 0 .29-.66c0-.162-.163-.285-.7-.408l-1.11-.246a.689.689 0 0 1 .081-1.028c1.437.083 3.08.123 4.518.123s2.834-.04 4.063-.123a.757.757 0 0 1 .084 1.028 10.118 10.118 0 0 0 -3.817 1.149 41.09 41.09 0 0 0 -5.751 4.764l-3.7 3.488c-.575.578-.945.945-.945 1.272 0 .291.248.618.782 1.274 3.9 4.474 7.061 8.171 10.266 11.54a4.759 4.759 0 0 0 3.127 1.683l.793.123a.713.713 0 0 1 -.084 1.026c-1.067-.083-2.192-.123-4.124-.123-1.68 0-3.121.04-5.008.123-.288-.083-.411-.783-.163-1.026l.942-.167c.578-.079.986-.2.986-.408 0-.246-.288-.575-.575-.945-.782-.986-1.849-2.095-3.409-3.859l-3.284-3.7c-2.339-2.626-3-3.448-3.984-3.448-.615 0-.7.534-.7 1.972v5.3c0 4.311.084 4.885 2.383 5.133l1.11.123c.244.165.165.9-.084 1.026-2.012-.083-3.409-.123-5.008-.123-1.685 0-3.079.04-4.762.123a.79.79 0 0 1 -.084-1.026l.822-.123c2.176-.327 2.26-.822 2.26-5.133z" transform="translate(88.171 34.576)"/><path d="m163.576 62.252c0-4.353-.079-5.054-2.506-5.258l-1.025-.081c-.246-.167-.165-.9.083-1.028 2.051.083 3.448.123 5.172.123 1.645 0 3.042-.04 5.094-.123.246.123.327.861.083 1.028l-1.03.081c-2.422.2-2.5.9-2.5 5.258v14.616c0 4.354.081 4.929 2.5 5.217l1.03.123c.244.165.163.9-.083 1.026-2.053-.083-3.449-.125-5.094-.125-1.724 0-2.964.042-5.015.125a.794.794 0 0 1 -.081-1.026l.866-.123c2.426-.288 2.506-.863 2.506-5.217z" transform="translate(98.927 34.576)"/><path d="m194.24 76.129c0 1.233 0 6.119.128 7.185a.743.743 0 0 1 -.782.45c-.492-.694-1.685-2.132-5.258-6.2l-9.528-10.838c-1.106-1.274-3.9-4.641-4.761-5.541h-.081a10.261 10.261 0 0 0 -.207 2.666v8.949c0 1.928.04 7.268.738 8.5.248.455 1.07.7 2.1.782l1.272.123a.755.755 0 0 1 -.083 1.026c-1.849-.083-3.286-.123-4.8-.123-1.724 0-2.834.04-4.27.123a.758.758 0 0 1 -.084-1.026l1.109-.123c.944-.123 1.6-.371 1.808-.822.575-1.476.533-6.486.533-8.458v-11.864a3.762 3.762 0 0 0 -.9-2.957 4.443 4.443 0 0 0 -2.546-.986l-.7-.081a.718.718 0 0 1 .072-1.028c1.724.123 3.9.123 4.639.123a13.229 13.229 0 0 0 1.891-.123c.822 2.095 5.664 7.516 7.017 9.036l3.987 4.474c2.834 3.161 4.843 5.461 6.774 7.433h.084a4.159 4.159 0 0 0 .163-1.726v-8.788c0-1.929-.04-7.266-.822-8.5-.248-.369-.9-.617-2.543-.821l-.7-.081c-.29-.246-.246-.9.081-1.028 1.887.083 3.284.123 4.845.123 1.769 0 2.834-.04 4.228-.123a.722.722 0 0 1 .084 1.028l-.576.081c-1.313.2-2.135.534-2.3.863-.7 1.476-.618 6.569-.618 8.458z" transform="translate(103.783 34.576)"/><path d="m193.651 83.969a12.838 12.838 0 0 1 -6.408-1.517 19.047 19.047 0 0 1 -1.11-5.748c.207-.29.826-.371.986-.123.618 2.091 2.3 6.119 7.064 6.119 3.449 0 5.133-2.261 5.133-4.722 0-1.808-.371-3.82-3.367-5.751l-3.9-2.546c-2.054-1.353-4.437-3.7-4.437-7.061 0-3.9 3.037-7.064 8.377-7.064a15.939 15.939 0 0 1 3.82.534 5.4 5.4 0 0 0 1.434.246 17.91 17.91 0 0 1 .741 5.01c-.167.248-.822.369-1.029.123-.531-1.972-1.641-4.641-5.581-4.641-4.026 0-4.888 2.669-4.888 4.561 0 2.379 1.972 4.1 3.488 5.049l3.289 2.052c2.587 1.6 5.133 3.984 5.133 7.883 0 4.518-3.409 7.595-8.746 7.595" transform="translate(115.159 34.372)"/><path d="m29.148 86.828c0-1.57-.084-1.973-1.039-2.059l-.68-.063a.339.339 0 0 1 .023-.531c1.144-.105 2.588-.168 4.563-.168a8.071 8.071 0 0 1 3.566.594 2.786 2.786 0 0 1 1.614 2.651 3.069 3.069 0 0 1 -2.167 2.909c0 .212.172.277.4.317a3.511 3.511 0 0 1 2.842 3.547c0 2.46-1.824 4.116-5.643 4.116-.617 0-1.658-.063-2.549-.063-.934 0-1.656.042-2.441.063a.411.411 0 0 1 -.042-.529l.382-.065c1.125-.191 1.167-.424 1.167-2.651zm1.74 2.825c0 .594.023.636 1.1.594 2.166-.086 3.333-.722 3.333-2.716 0-2.082-1.549-2.867-3.161-2.867a2.608 2.608 0 0 0 -.978.128c-.212.063-.3.168-.3.55zm0 4.922a4.166 4.166 0 0 0 .447 2.315 2.061 2.061 0 0 0 1.677.594c1.889 0 3.331-.85 3.331-2.972 0-1.677-.848-3.629-4.222-3.629-1.148 0-1.233.128-1.233.552z" transform="translate(16.897 51.975)"/><path d="m37.79 87.252c0-2.227-.042-2.567-1.379-2.672l-.531-.044c-.126-.084-.084-.466.042-.529 1.19.04 1.912.063 2.76.063.829 0 1.551-.023 2.611-.063.126.063.17.445.042.529l-.51.044c-1.251.105-1.295.445-1.295 2.672v7.388c0 1.337.066 1.889.447 2.292.233.233.636.487 2.313.487 1.806 0 2.25-.084 2.592-.275a4.532 4.532 0 0 0 1.4-2.1c.129-.105.531-.021.531.128a17.007 17.007 0 0 1 -.892 2.97c-1.081-.042-3.1-.063-5.285-.063h-1.954c-.892 0-1.57.021-2.76.063a.413.413 0 0 1 -.042-.529l.638-.065c1.23-.128 1.272-.424 1.272-2.651z" transform="translate(22.152 51.975)"/><path d="m43.7 91.329a7.336 7.336 0 0 1 7.554-7.493 6.987 6.987 0 0 1 7.365 7.281 7.247 7.247 0 0 1 -7.365 7.407 7.146 7.146 0 0 1 -7.554-7.2m12.8.445c0-3.5-1.549-7.281-5.6-7.281-2.206 0-5.073 1.507-5.073 6.156 0 3.14 1.528 7.216 5.711 7.216 2.545 0 4.966-1.91 4.966-6.091" transform="translate(27.039 51.869)"/><path d="m54.777 91.329a7.336 7.336 0 0 1 7.556-7.493 6.986 6.986 0 0 1 7.367 7.281 7.245 7.245 0 0 1 -7.363 7.407 7.147 7.147 0 0 1 -7.556-7.2m12.8.445c0-3.5-1.551-7.281-5.6-7.281-2.206 0-5.073 1.507-5.073 6.156 0 3.14 1.528 7.216 5.709 7.216 2.546 0 4.968-1.91 4.968-6.091" transform="translate(33.89 51.869)"/><path d="m73.229 92.411c.489 1 .955 1.975 1.465 2.909h.042c.573-1 1.1-2.1 1.635-3.186l1.994-4.053c.957-1.931 1.57-3.1 1.614-4.074.722.063 1.167.063 1.591.063.533 0 1.232-.023 1.889-.063a.445.445 0 0 1 .023.529l-.447.044c-1.335.126-1.505.529-1.484 2.017.042 2.248.061 6.175.233 9.231.063 1.062.04 1.635 1.039 1.719l.678.065a.387.387 0 0 1 -.042.529c-.869-.042-1.74-.062-2.5-.062-.743 0-1.7.019-2.569.062a.389.389 0 0 1 -.042-.529l.615-.065c1.037-.105 1.037-.447 1.037-1.803l-.066-8.853h-.04c-.149.235-.957 1.933-1.381 2.761l-1.889 3.713c-.953 1.868-1.91 3.864-2.292 4.838a.244.244 0 0 1 -.212.086.256.256 0 0 1 -.191-.086c-.359-1.123-1.379-3.2-1.868-4.243l-1.91-4.1c-.445-.976-.892-2.08-1.358-3.056h-.043c-.084 1.314-.149 2.546-.212 3.778-.063 1.293-.149 3.182-.149 4.987 0 1.57.128 1.91.957 1.973l.806.065c.149.126.128.468-.021.529-.722-.042-1.549-.062-2.357-.062-.678 0-1.442.019-2.166.062a.42.42 0 0 1 -.042-.529l.466-.065c.892-.128 1.19-.253 1.316-1.74.13-1.4.235-2.567.361-4.67.107-1.761.193-3.566.235-4.733.044-1.337-.128-1.656-1.421-1.824l-.342-.044a.4.4 0 0 1 .086-.529c.638.04 1.146.063 1.677.063.487 0 1.062 0 1.763-.063a8.1 8.1 0 0 0 1.1 3.5z" transform="translate(40.518 51.975)"/><path d="m80.146 86.828c0-1.57-.086-1.973-1.041-2.059l-.678-.063a.34.34 0 0 1 .021-.531c1.146-.105 2.59-.168 4.565-.168a8.071 8.071 0 0 1 3.566.594 2.785 2.785 0 0 1 1.612 2.651 3.07 3.07 0 0 1 -2.166 2.909c0 .212.172.277.4.317a3.511 3.511 0 0 1 2.842 3.547c0 2.46-1.826 4.116-5.644 4.116-.615 0-1.656-.063-2.548-.063-.934 0-1.656.042-2.441.063a.409.409 0 0 1 -.042-.529l.382-.065c1.125-.191 1.167-.424 1.167-2.651zm1.74 2.825c0 .594.023.636 1.1.594 2.166-.086 3.333-.722 3.333-2.716 0-2.082-1.551-2.867-3.161-2.867a2.6 2.6 0 0 0 -.978.128c-.212.063-.3.168-.3.55zm0 4.922a4.152 4.152 0 0 0 .447 2.315 2.059 2.059 0 0 0 1.677.594c1.889 0 3.331-.85 3.331-2.972 0-1.677-.85-3.629-4.223-3.629-1.146 0-1.232.128-1.232.552z" transform="translate(48.45 51.975)"/><path d="m88.816 87.252c0-2.206-.044-2.524-1.295-2.672l-.34-.044c-.128-.084-.086-.466.042-.529.913.04 1.635.063 2.5.063h3.992c1.358 0 2.611 0 2.865-.063a23.839 23.839 0 0 1 .34 2.821.417.417 0 0 1 -.531.044c-.317-1-.51-1.742-1.614-2.017a10.068 10.068 0 0 0 -2.057-.126h-1.53c-.636 0-.636.04-.636.848v4.244c0 .594.065.594.7.594h1.23a7.941 7.941 0 0 0 1.8-.126c.256-.086.4-.212.51-.745l.17-.868a.415.415 0 0 1 .55.019c0 .51-.084 1.339-.084 2.143 0 .766.084 1.572.084 2.04a.415.415 0 0 1 -.55.019l-.193-.827a.9.9 0 0 0 -.657-.806 7.068 7.068 0 0 0 -1.635-.105h-1.23c-.636 0-.7.019-.7.573v2.991c0 1.125.065 1.847.4 2.208.254.254.7.487 2.567.487a6.231 6.231 0 0 0 2.718-.317 5.328 5.328 0 0 0 1.507-2.059.393.393 0 0 1 .531.147 18.393 18.393 0 0 1 -.955 2.951c-1.912-.042-3.8-.063-5.688-.063h-1.899c-.911 0-1.633.021-2.886.063a.413.413 0 0 1 -.044-.529l.7-.065c1.209-.105 1.316-.424 1.316-2.651z" transform="translate(53.655 51.975)"/><path d="m97.045 87.275c0-2.017-.065-2.378-.934-2.483l-.68-.086a.353.353 0 0 1 .023-.531c1.186-.105 2.651-.168 4.731-.168a7.543 7.543 0 0 1 3.547.635 3.169 3.169 0 0 1 1.76 2.972 3.93 3.93 0 0 1 -2.651 3.547c-.107.126 0 .338.105.508 1.7 2.737 2.823 4.437 4.267 5.646a2.542 2.542 0 0 0 1.463.594.177.177 0 0 1 .021.3 3.242 3.242 0 0 1 -.934.108c-1.8 0-2.885-.533-4.393-2.676-.552-.785-1.421-2.248-2.08-3.205a1.513 1.513 0 0 0 -1.507-.68c-.955 0-1 .019-1 .468v2.676c0 2.226.042 2.483 1.274 2.65l.445.066a.41.41 0 0 1 -.044.529c-.955-.042-1.675-.063-2.525-.063-.89 0-1.656.021-2.653.063a.408.408 0 0 1 -.042-.529l.531-.066c1.23-.147 1.274-.424 1.274-2.65zm1.74 3.035a1.651 1.651 0 0 0 .065.7c.063.063.382.105 1.465.105a3.542 3.542 0 0 0 2.184-.552 3.046 3.046 0 0 0 1.063-2.632 3.126 3.126 0 0 0 -3.4-3.268c-1.316 0-1.381.084-1.381.678z" transform="translate(58.877 51.975)"/><path d="m116.664 96.018c0 .85.128 1.358.512 1.507a.176.176 0 0 1 -.023.256 4.712 4.712 0 0 0 -1.039.191 16.554 16.554 0 0 1 -3.8.552 8.844 8.844 0 0 1 -6.473-2.357 6.684 6.684 0 0 1 -1.952-4.817 7.288 7.288 0 0 1 1.908-5.031c1.423-1.484 3.524-2.483 6.729-2.483a12.779 12.779 0 0 1 2.7.317 5.588 5.588 0 0 0 1.318.193 23.543 23.543 0 0 0 .317 3.077c-.065.17-.447.191-.573.065-.594-2.292-2.187-3.014-4.351-3.014-4.12 0-5.923 2.928-5.923 6.111 0 4.076 2.1 7.281 6.366 7.281 1.318 0 2.1-.275 2.336-.636a2.361 2.361 0 0 0 .212-1.211v-.849c0-1.782-.063-1.91-1.377-2.059l-.938-.111a.351.351 0 0 1 0-.529c.613.042 1.782.063 3.033.063.829 0 1.549-.021 2.252-.063a.368.368 0 0 1 .019.529l-.338.044c-.892.105-.915.7-.915 1.782z" transform="translate(64.275 51.869)"/><path d="m122.531 98.524a6.607 6.607 0 0 1 -3.312-.787 9.748 9.748 0 0 1 -.573-2.97c.107-.149.426-.193.508-.063a3.862 3.862 0 0 0 3.652 3.161 2.412 2.412 0 0 0 2.655-2.439 3.191 3.191 0 0 0 -1.742-2.972l-2.019-1.316a4.532 4.532 0 0 1 -2.292-3.65c0-2.017 1.57-3.652 4.33-3.652a8.2 8.2 0 0 1 1.975.277 2.87 2.87 0 0 0 .743.126 9.3 9.3 0 0 1 .38 2.59c-.083.126-.424.191-.531.063a2.778 2.778 0 0 0 -2.886-2.4 2.222 2.222 0 0 0 -2.519 2.358 3.34 3.34 0 0 0 1.8 2.611l1.7 1.06a4.786 4.786 0 0 1 2.653 4.076c0 2.336-1.761 3.927-4.521 3.927" transform="translate(73.406 51.869)"/><path d="m128.1 85.639a9.155 9.155 0 0 1 5.732-1.8 16.315 16.315 0 0 1 3.755.51 1.623 1.623 0 0 0 .6.084c.021.489.126 1.826.3 3.121a.448.448 0 0 1 -.573.042c-.32-1.444-1.274-3.1-4.353-3.1-3.247 0-6.005 2.061-6.005 6.452 0 4.458 2.823 6.922 6.3 6.922a4.528 4.528 0 0 0 4.437-3.037.445.445 0 0 1 .552.086 7.977 7.977 0 0 1 -1.02 2.907 4.4 4.4 0 0 0 -.741.212 12.507 12.507 0 0 1 -3.354.489 9.285 9.285 0 0 1 -5.285-1.423 6.84 6.84 0 0 1 -3.016-5.835 7.052 7.052 0 0 1 2.674-5.627" transform="translate(77.598 51.869)"/><path d="m139.809 91.223c-1.018 0-1.062.042-1.062.678v2.999c0 2.227.107 2.524 1.295 2.651l.617.065c.126.084.084.466-.044.529-1.146-.039-1.868-.063-2.694-.063-.915 0-1.637.042-2.464.063a.411.411 0 0 1 -.044-.529l.361-.065c1.188-.212 1.232-.424 1.232-2.651v-7.648c0-2.227-.149-2.588-1.253-2.672l-.552-.044c-.126-.084-.084-.466.044-.529 1.039.021 1.761.063 2.676.063.826 0 1.548-.023 2.46-.063.128.063.168.445.042.529l-.4.044c-1.23.126-1.274.445-1.274 2.672v2.441c0 .659.044.68 1.062.68h6.07c1.018 0 1.062-.021 1.062-.68v-2.441c0-2.227-.044-2.546-1.295-2.672l-.4-.044c-.13-.084-.086-.466.042-.529.978.04 1.7.063 2.569.063.826 0 1.549-.023 2.506-.063.126.063.168.445.04.529l-.445.044c-1.232.126-1.276.445-1.276 2.672v7.648c0 2.227.044 2.5 1.276 2.651l.51.065c.126.084.084.466-.042.529-1.02-.039-1.743-.063-2.569-.063-.871 0-1.635.024-2.569.063a.407.407 0 0 1 -.042-.529l.4-.065c1.295-.212 1.295-.424 1.295-2.651v-3c0-.636-.044-.678-1.062-.678z" transform="translate(83.602 51.975)"/><path d="m146.092 91.329a7.337 7.337 0 0 1 7.556-7.493 6.986 6.986 0 0 1 7.363 7.281 7.246 7.246 0 0 1 -7.363 7.407 7.147 7.147 0 0 1 -7.556-7.2m12.8.445c0-3.5-1.551-7.281-5.6-7.281-2.208 0-5.073 1.507-5.073 6.156 0 3.14 1.528 7.216 5.709 7.216 2.546 0 4.968-1.91 4.968-6.091" transform="translate(90.386 51.869)"/><path d="m157.167 91.329a7.336 7.336 0 0 1 7.556-7.493 6.986 6.986 0 0 1 7.363 7.281 7.246 7.246 0 0 1 -7.363 7.407 7.147 7.147 0 0 1 -7.556-7.2m12.8.445c0-3.5-1.549-7.281-5.6-7.281-2.208 0-5.073 1.507-5.073 6.156 0 3.14 1.526 7.216 5.709 7.216 2.546 0 4.966-1.91 4.966-6.091" transform="translate(97.238 51.869)"/><path d="m170 87.252c0-2.227-.042-2.567-1.379-2.672l-.531-.044c-.128-.084-.086-.466.042-.529 1.19.04 1.912.063 2.76.063.829 0 1.551-.023 2.611-.063.126.063.17.445.042.529l-.51.044c-1.253.105-1.295.445-1.295 2.672v7.388c0 1.337.066 1.889.447 2.292.231.233.636.487 2.315.487 1.8 0 2.248-.084 2.59-.275a4.545 4.545 0 0 0 1.4-2.1c.126-.105.529-.021.529.128a17.007 17.007 0 0 1 -.892 2.97c-1.081-.042-3.1-.063-5.285-.063h-1.954c-.892 0-1.57.021-2.76.063a.409.409 0 0 1 -.042-.529l.638-.065c1.23-.128 1.272-.424 1.272-2.651z" transform="translate(103.947 51.975)"/><path d="m47.281 104.284a8.071 8.071 0 0 1 -2.25 4.817 4.072 4.072 0 0 1 -3.031 1.465c-1.358 0-2.25-1-2.124-2.825a7.975 7.975 0 0 1 2.315-4.753 4.133 4.133 0 0 1 2.928-1.381c1.507 0 2.252 1.125 2.166 2.676m-3.864-1.02a12.29 12.29 0 0 0 -2.121 5.307c-.044.743.254 1.361.871 1.361.466 0 1-.194 1.677-1.107a13.086 13.086 0 0 0 1.973-5.178c.021-.657-.105-1.4-.848-1.4-.426 0-.934.193-1.551 1.02" transform="translate(24.662 62.864)"/><path d="m51.383 105.182c-.126.361-.295 1.039-.55 1.973-.636 2.378-1.209 4.416-1.889 6.75a8.418 8.418 0 0 1 -1.675 3.417 3.958 3.958 0 0 1 -2.549 1.146c-1.146 0-1.549-.722-1.549-1.039a1.235 1.235 0 0 1 .489-.955.344.344 0 0 1 .487.084 2.557 2.557 0 0 0 1.614.871c.424 0 .869-.149 1.358-1.782.976-3.354 1.721-7.006 2.737-10.465h-1.762a.532.532 0 0 1 .149-.785h1.826a12.906 12.906 0 0 1 2.378-5.052 4.3 4.3 0 0 1 3.394-1.763 1.555 1.555 0 0 1 1.635 1.4c0 .55-.573 1.209-.913 1.209-.189 0-.275-.193-.3-.342-.065-1.165-.659-1.551-1.188-1.551a2.2 2.2 0 0 0 -1.528 1.148 15.926 15.926 0 0 0 -1.975 4.947h2.653a.569.569 0 0 1 -.212.785z" transform="translate(26.709 60.374)"/><path d="m58.652 109.154c0 2.227.042 2.5 1.4 2.651l.575.065a.41.41 0 0 1 -.044.529c-1.209-.04-1.908-.063-2.76-.063-.89 0-1.654.023-2.588.063a.409.409 0 0 1 -.042-.529l.445-.065c1.232-.168 1.274-.424 1.274-2.651v-7.833c0-1.8-.042-2.166-1-2.271l-.766-.086a.355.355 0 0 1 .044-.531 33.761 33.761 0 0 1 4.2-.168 7.664 7.664 0 0 1 4.073.848 3.665 3.665 0 0 1 1.7 3.184 3.6 3.6 0 0 1 -2.124 3.375 7.173 7.173 0 0 1 -2.928.636c-.149-.063-.149-.38-.021-.424 2.292-.424 3.119-1.719 3.119-3.566a3.127 3.127 0 0 0 -3.409-3.393c-1.123 0-1.146.081-1.146.761z" transform="translate(34.059 60.796)"/><path d="m74.96 103.655c0-1.316-.044-3.757-.4-4.393a1.31 1.31 0 0 0 -1.06-.447l-.531-.04a.385.385 0 0 1 .042-.51c.808.042 1.593.063 2.42.063.892 0 1.465-.021 2.229-.063a.366.366 0 0 1 .042.51l-.51.04a1.246 1.246 0 0 0 -1.06.51 18.835 18.835 0 0 0 -.3 4.33v2.4c0 1.847-.295 3.8-1.484 5.073a5.591 5.591 0 0 1 -4.053 1.549 6.037 6.037 0 0 1 -3.969-1.167c-1.127-.934-1.656-2.485-1.656-5.008v-5.01c0-2.208-.044-2.569-1.272-2.676l-.531-.04c-.13-.086-.086-.447.042-.51 1.062.042 1.784.063 2.632.063.869 0 1.57-.021 2.611-.063.126.063.17.424.04.51l-.508.04c-1.232.107-1.274.468-1.274 2.676v4.584c0 3.417 1.062 5.667 4.309 5.667 3.077 0 4.246-2.42 4.246-5.646z" transform="translate(38.844 60.796)"/><path d="m75.186 101.086c0-1.57-.086-1.973-1.041-2.059l-.68-.063a.341.341 0 0 1 .023-.531c1.146-.105 2.588-.168 4.563-.168a8.066 8.066 0 0 1 3.566.594 2.786 2.786 0 0 1 1.614 2.651 3.069 3.069 0 0 1 -2.167 2.909c0 .214.172.277.4.319a3.511 3.511 0 0 1 2.844 3.545c0 2.46-1.826 4.116-5.644 4.116-.617 0-1.658-.063-2.548-.063-.934 0-1.656.042-2.441.063a.411.411 0 0 1 -.044-.529l.384-.065c1.123-.191 1.167-.424 1.167-2.65zm1.74 2.825c0 .594.023.636 1.1.594 2.167-.086 3.333-.722 3.333-2.716 0-2.08-1.549-2.867-3.161-2.867a2.607 2.607 0 0 0 -.978.128c-.212.063-.3.168-.3.554zm0 4.924a4.158 4.158 0 0 0 .447 2.315 2.061 2.061 0 0 0 1.677.592c1.889 0 3.33-.85 3.33-2.972 0-1.677-.848-3.629-4.222-3.629-1.148 0-1.232.128-1.232.552z" transform="translate(45.381 60.796)"/><path d="m83.829 101.51c0-2.227-.044-2.567-1.379-2.671l-.533-.045c-.126-.084-.084-.466.044-.529 1.188.042 1.91.063 2.758.063.829 0 1.551-.021 2.611-.063.128.063.17.445.044.529l-.51.045c-1.253.1-1.295.444-1.295 2.671v7.39c0 1.337.065 1.889.445 2.292.233.235.638.487 2.313.487 1.806 0 2.25-.084 2.592-.275a4.532 4.532 0 0 0 1.4-2.1c.129-.105.531-.021.531.128a16.964 16.964 0 0 1 -.892 2.97c-1.08-.04-3.1-.063-5.285-.063h-1.954c-.89 0-1.57.023-2.758.063a.411.411 0 0 1 -.044-.529l.638-.065c1.23-.128 1.274-.424 1.274-2.651z" transform="translate(50.635 60.796)"/><path d="m91.7 101.554c0-2.25-.042-2.611-1.295-2.716l-.531-.044c-.126-.084-.086-.466.042-.529 1.062.042 1.784.063 2.676.063.848 0 1.57-.021 2.63-.063.128.063.172.445.044.529l-.531.044c-1.253.105-1.295.466-1.295 2.716v7.556c0 2.25.042 2.548 1.295 2.7l.531.065c.128.084.084.466-.044.529-1.06-.04-1.782-.063-2.63-.063-.892 0-1.614.023-2.676.063a.411.411 0 0 1 -.042-.529l.531-.065c1.253-.147 1.295-.445 1.295-2.7z" transform="translate(55.557 60.796)"/><path d="m97.629 99.9a9.158 9.158 0 0 1 5.732-1.8 16.315 16.315 0 0 1 3.755.51 1.59 1.59 0 0 0 .6.084c.021.489.126 1.826.3 3.121a.451.451 0 0 1 -.575.042c-.319-1.444-1.272-3.1-4.351-3.1-3.247 0-6.005 2.061-6.005 6.454 0 4.456 2.823 6.918 6.3 6.918a4.529 4.529 0 0 0 4.437-3.033.44.44 0 0 1 .55.084 7.95 7.95 0 0 1 -1.018 2.907 4.312 4.312 0 0 0 -.743.212 12.426 12.426 0 0 1 -3.352.489 9.285 9.285 0 0 1 -5.285-1.423 6.84 6.84 0 0 1 -3.016-5.835 7.057 7.057 0 0 1 2.671-5.63" transform="translate(58.748 60.69)"/><path d="m113.261 105.481c-1.018 0-1.062.042-1.062.677v2.995c0 2.229.107 2.525 1.295 2.653l.617.065c.126.084.084.466-.044.529-1.146-.04-1.868-.063-2.694-.063-.915 0-1.637.042-2.464.063a.409.409 0 0 1 -.042-.529l.361-.065c1.186-.212 1.23-.424 1.23-2.653v-7.643c0-2.227-.149-2.588-1.253-2.672l-.55-.044c-.128-.084-.086-.466.042-.529 1.039.021 1.761.063 2.676.063.826 0 1.547-.021 2.46-.063.128.063.17.445.042.529l-.4.044c-1.23.126-1.274.445-1.274 2.672v2.443c0 .657.044.68 1.062.68h6.07c1.018 0 1.062-.023 1.062-.68v-2.443c0-2.227-.044-2.546-1.295-2.672l-.4-.044c-.128-.084-.084-.466.042-.529.978.042 1.7.063 2.569.063.826 0 1.549-.021 2.506-.063.126.063.168.445.042.529l-.447.044c-1.232.126-1.276.445-1.276 2.672v7.642c0 2.229.044 2.506 1.276 2.653l.512.065c.125.084.083.466-.044.529-1.02-.04-1.743-.063-2.569-.063-.869 0-1.635.023-2.569.063a.411.411 0 0 1 -.042-.529l.4-.065c1.295-.212 1.295-.424 1.295-2.653v-2.995c0-.635-.044-.677-1.062-.677z" transform="translate(67.177 60.796)"/><path d="m121.733 101.51c0-2.206-.042-2.524-1.295-2.671l-.338-.045c-.128-.084-.086-.466.042-.529.913.042 1.635.063 2.5.063h3.992c1.36 0 2.613 0 2.867-.063a24.308 24.308 0 0 1 .338 2.821.413.413 0 0 1 -.529.044c-.319-1-.51-1.742-1.614-2.017a10.1 10.1 0 0 0 -2.059-.126h-1.528c-.638 0-.638.04-.638.85v4.243c0 .594.066.594.7.594h1.23a7.837 7.837 0 0 0 1.8-.126c.256-.086.4-.212.51-.743l.172-.869a.415.415 0 0 1 .55.019c0 .51-.086 1.339-.086 2.145 0 .764.086 1.57.086 2.038a.415.415 0 0 1 -.55.019l-.193-.827a.906.906 0 0 0 -.657-.806 7.067 7.067 0 0 0 -1.635-.105h-1.23c-.636 0-.7.019-.7.573v2.993c0 1.123.066 1.845.4 2.206.254.254.7.487 2.569.487a6.232 6.232 0 0 0 2.716-.317 5.362 5.362 0 0 0 1.507-2.059.39.39 0 0 1 .529.147 18.558 18.558 0 0 1 -.953 2.951c-1.912-.04-3.8-.063-5.69-.063h-1.912c-.911 0-1.633.023-2.885.063a.409.409 0 0 1 -.044-.529l.7-.065c1.211-.105 1.316-.424 1.316-2.651z" transform="translate(74.02 60.796)"/><path d="m136.411 107.516c-.147-.466-.231-.529-.868-.529h-3.207c-.531 0-.657.063-.808.51l-.741 2.229a8.215 8.215 0 0 0 -.468 1.761c0 .256.107.382.617.424l.7.065a.339.339 0 0 1 -.044.529c-.549-.04-1.209-.04-2.206-.063-.7 0-1.463.042-2.036.063a.413.413 0 0 1 -.044-.529l.7-.065a1.412 1.412 0 0 0 1.276-1.039c.38-.976.978-2.358 1.868-4.733l2.164-5.732a3.04 3.04 0 0 0 .361-1.507 2.383 2.383 0 0 0 1.1-.806.3.3 0 0 1 .317.191c.275.934.617 1.91.936 2.844l2.907 8.532c.615 1.826.892 2.145 1.8 2.25l.573.065c.149.1.105.445 0 .529-.872-.04-1.614-.063-2.569-.063-1.018 0-1.826.042-2.443.063a.356.356 0 0 1 -.04-.529l.613-.065c.448-.042.745-.168.745-.38a4.356 4.356 0 0 0 -.277-1.127zm-4.2-1.887c-.168.487-.149.51.445.51h2.611c.615 0 .659-.086.466-.659l-1.146-3.459a13.6 13.6 0 0 0 -.487-1.339h-.042a13.5 13.5 0 0 0 -.51 1.254z" transform="translate(78.715 60.69)"/><path d="m138.825 101.51c0-2.227-.044-2.567-1.381-2.671l-.531-.045c-.128-.084-.084-.466.042-.529 1.188.042 1.91.063 2.76.063.829 0 1.551-.021 2.611-.063.126.063.168.445.042.529l-.51.045c-1.251.1-1.295.444-1.295 2.671v7.39c0 1.337.065 1.889.447 2.292.231.235.636.487 2.313.487 1.8 0 2.25-.084 2.59-.275a4.52 4.52 0 0 0 1.4-2.1c.128-.105.529-.021.529.128a16.943 16.943 0 0 1 -.89 2.97c-1.083-.04-3.1-.063-5.287-.063h-1.951c-.89 0-1.572.023-2.76.063a.411.411 0 0 1 -.042-.529l.638-.065c1.23-.128 1.274-.424 1.274-2.651z" transform="translate(84.66 60.796)"/><path d="m150.734 109.4c0 2.227.04 2.546 1.272 2.651l.678.065c.128.084.086.466-.042.529-1.209-.04-1.931-.063-2.779-.063s-1.593.023-2.951.063a.369.369 0 0 1 0-.529l.764-.065c1.209-.105 1.316-.424 1.316-2.651v-9.492c0-.659 0-.678-.636-.678h-1.169a4.337 4.337 0 0 0 -2.609.529 3.875 3.875 0 0 0 -.957 1.465.409.409 0 0 1 -.552-.149 22.116 22.116 0 0 0 .808-3.163.542.542 0 0 1 .4 0c.128.68.827.659 1.8.659h8.6c1.146 0 1.339-.042 1.658-.594.105-.042.337-.021.38.063a13.049 13.049 0 0 0 -.319 3.226.4.4 0 0 1 -.552.044c-.063-.531-.212-1.318-.531-1.551a4.228 4.228 0 0 0 -2.46-.529h-1.509c-.636 0-.614.019-.614.722z" transform="translate(88.516 60.553)"/><path d="m157.484 105.481c-1.021 0-1.064.042-1.064.677v2.995c0 2.229.105 2.525 1.295 2.653l.615.065c.128.084.086.466-.04.529-1.148-.04-1.87-.063-2.7-.063-.915 0-1.636.042-2.464.063a.411.411 0 0 1 -.042-.529l.361-.065c1.188-.212 1.23-.424 1.23-2.653v-7.643c0-2.227-.149-2.588-1.251-2.672l-.552-.044c-.128-.084-.086-.466.042-.529 1.039.021 1.761.063 2.676.063.826 0 1.547-.021 2.462-.063.125.063.168.445.04.529l-.4.044c-1.232.126-1.274.445-1.274 2.672v2.443c0 .657.042.68 1.064.68h6.07c1.018 0 1.06-.023 1.06-.68v-2.443c0-2.227-.042-2.546-1.3-2.672l-.4-.044c-.13-.084-.086-.466.04-.529.976.042 1.7.063 2.569.063.827 0 1.549-.021 2.5-.063.128.063.172.445.042.529l-.443.044c-1.232.126-1.276.445-1.276 2.672v7.642c0 2.229.044 2.506 1.276 2.653l.508.065c.128.084.084.466-.042.529-1.02-.04-1.742-.063-2.569-.063-.871 0-1.635.023-2.569.063a.409.409 0 0 1 -.04-.529l.4-.065c1.3-.212 1.3-.424 1.3-2.653v-2.995c0-.635-.042-.677-1.06-.677z" transform="translate(94.537 60.796)"/></g><path d="m9.475 210.559h309.325" fill="none" stroke="#fff" stroke-width="1.478"/></svg>