<?xml version="1.0" encoding="UTF-8"?> <svg xmlns="http://www.w3.org/2000/svg" id="Group_2073" data-name="Group 2073" width="501" height="501" viewBox="0 0 501 501"><g id="Group_88" data-name="Group 88"><path id="Path_120" data-name="Path 120" d="M203.091,330.97v19.768a11.927,11.927,0,0,1-3.539,8.46,12.059,12.059,0,0,1-20.566-8.46V330.93q6.185.4,12.451.4c3.9,0,7.8-.119,11.653-.359" transform="translate(59.111 109.288)" fill="#236f72"></path><path id="Path_121" data-name="Path 121" d="M203.091,33.772V53.54c-3.858-.239-7.756-.359-11.653-.359q-6.265,0-12.451.4V33.772a12.059,12.059,0,0,1,20.566-8.46,11.926,11.926,0,0,1,3.539,8.46" transform="translate(59.111 7.198)" fill="#236f72"></path><path id="Path_122" data-name="Path 122" d="M53.643,203.494H33.769a11.972,11.972,0,1,1,0-23.944H53.6q-.359,5.806-.359,11.653,0,6.166.4,12.292" transform="translate(7.199 59.297)" fill="#236f72"></path><path id="Path_123" data-name="Path 123" d="M362.693,191.522a11.99,11.99,0,0,1-11.972,11.972H330.967q.4-6.126.4-12.292,0-5.847-.359-11.653h19.714a12.007,12.007,0,0,1,11.972,11.972" transform="translate(109.302 59.297)" fill="#236f72"></path><path id="Path_124" data-name="Path 124" d="M262.033,247.113V224.366c0-.359.386-.652.865-.652H425.214q-.459-7.523-1.49-14.925H301.873a.891.891,0,0,1-.891-.891V185.656a.891.891,0,0,1,.891-.891H418.763A190.7,190.7,0,0,0,309.469,60.24,186.992,186.992,0,0,0,286,52.085V207.9a.894.894,0,0,1-.9.891l-22.122.013a.9.9,0,0,1-.891-.9L262.059,47.15q-7.4-1.038-14.925-1.49V168.695a.891.891,0,0,1-.891.891H223.854a.9.9,0,0,1-.9-.891V45.7q-7.642.5-15.192,1.61a.911.911,0,0,1,.506.811v159.79a.894.894,0,0,1-.9.891H185.117a.891.891,0,0,1-.891-.891V52.8a.825.825,0,0,1,.226-.585,190.644,190.644,0,0,0-124.166,109.2,186,186,0,0,0-8.141,23.346h116.1a.9.9,0,0,1,.9.891V207.9a.9.9,0,0,1-.9.891H47.2q-1.038,7.4-1.49,14.925H207.386c.479,0,.865.293.865.638V247.02c0,.359-.386.639-.865.639H58.451a9.738,9.738,0,0,1-1.077.053H45.747q.459,7.4,1.5,14.686H168.356a.8.8,0,0,1,.8.8v22.428a.792.792,0,0,1-.8.8H52.252a190.286,190.286,0,0,0,131.881,132.12V263.063a.667.667,0,0,1,.652-.678h22.8a.6.6,0,0,1,.466.2.7.7,0,0,1,.186.479l.027,160.535c4.855.7,9.764,1.224,14.686,1.543V302.451a.8.8,0,0,1,.811-.8h22.574a.8.8,0,0,1,.8.8V425.18q7.5-.439,14.9-1.49l.013-160.428a.929.929,0,0,1,.2-.6.538.538,0,0,1,.452-.253h22.654c.359,0,.652.386.652.865v155.48a187,187,0,0,0,23.466-8.154A190.17,190.17,0,0,0,418.656,286.422h-116.9a.792.792,0,0,1-.8-.8V263.2a.8.8,0,0,1,.8-.8H423.671q1.038-7.263,1.5-14.646H262.9c-.479,0-.865-.279-.865-.638M247.12,285.664a.8.8,0,0,1-.8.8H223.774a.8.8,0,0,1-.8-.8V263.182a.8.8,0,0,1,.8-.8h22.548a.8.8,0,0,1,.8.8Zm0-38.75a.8.8,0,0,1-.8.8H223.774a.8.8,0,0,1-.8-.8V224.5a.8.8,0,0,1,.8-.8h22.548a.8.8,0,0,1,.8.8Zm0-38.87a.8.8,0,0,1-.8.8H223.735a.8.8,0,0,1-.8-.8V185.509a.8.8,0,0,1,.8-.8h22.588a.8.8,0,0,1,.8.8Z" transform="translate(15.095 15.079)" fill="#450e09"></path><path id="Path_125" data-name="Path 125" d="M201.775,371.084a11,11,0,1,0-11,11,11,11,0,0,0,11-11" transform="translate(59.372 118.919)" fill="#3bb5b0"></path><path id="Path_126" data-name="Path 126" d="M201.775,11a11,11,0,1,1-11-11,11,11,0,0,1,11,11" transform="translate(59.372 0)" fill="#3bb5b0"></path><path id="Path_127" data-name="Path 127" d="M11,202.267a11,11,0,1,0-11-11,11,11,0,0,0,11,11" transform="translate(0 59.533)" fill="#3bb5b0"></path><path id="Path_128" data-name="Path 128" d="M371.084,202.267a11,11,0,1,1,11-11,11,11,0,0,1-11,11" transform="translate(118.919 59.533)" fill="#3bb5b0"></path><path id="Path_129" data-name="Path 129" d="M231.064,342.563a11,11,0,1,0-11,11,11,11,0,0,0,11-11" transform="translate(69.046 109.499)" fill="#236f72"></path><path id="Path_130" data-name="Path 130" d="M172.552,40.345a11,11,0,1,1-11-11,11,11,0,0,1,11,11" transform="translate(49.722 9.692)" fill="#236f72"></path><path id="Path_131" data-name="Path 131" d="M39.518,231.34a11,11,0,1,0-11-11,11,11,0,0,0,11,11" transform="translate(9.419 69.136)" fill="#236f72"></path><path id="Path_132" data-name="Path 132" d="M341.736,172.957a11,11,0,1,1,11-11,11,11,0,0,1-11,11" transform="translate(109.227 49.856)" fill="#236f72"></path><path id="Path_133" data-name="Path 133" d="M172.552,341.738a11,11,0,1,0-11,11,11,11,0,0,0,11-11" transform="translate(49.722 109.226)" fill="#236f72"></path><path id="Path_134" data-name="Path 134" d="M231.064,39.518a11,11,0,1,1-11-11,11,11,0,0,1,11,11" transform="translate(69.046 9.42)" fill="#236f72"></path><path id="Path_135" data-name="Path 135" d="M40.344,172.957a11,11,0,1,0-11-11,11,11,0,0,0,11,11" transform="translate(9.692 49.856)" fill="#236f72"></path><path id="Path_136" data-name="Path 136" d="M342.563,231.34a11,11,0,1,1,11-11,11,11,0,0,1-11,11" transform="translate(109.5 69.136)" fill="#236f72"></path><path id="Path_137" data-name="Path 137" d="M265.741,95.6a14.428,14.428,0,1,0,20.4,0,14.428,14.428,0,0,0-20.4,0" transform="translate(86.366 30.175)" fill="#efe9da"></path><path id="Path_138" data-name="Path 138" d="M236.893,147.088c-.048.059-.071.106-.107.142l-.071.105h.177l50.8.024,12.147.007s17.018-.06,33.174-16.216c0,0-34.951-15.466-60.65-8.19a41.255,41.255,0,0,0-4.452,1.535c-19.865,8.2-29.62,20.7-31.013,22.593" transform="translate(78.176 39.964)" fill="#efe9da"></path><path id="Path_139" data-name="Path 139" d="M252.913,76.033s-10.406,11.633-14.77,27.185l0,0q-.341,1.2-.627,2.426a84.848,84.848,0,0,0-1.434,13.016c-.105,1.981-.194,4.063-.257,6.2-.506,16.579.126,36.151.126,36.151.041-.051.088-.1.125-.142.492-.568.976-1.128,1.447-1.691l0,0a108.415,108.415,0,0,0,15.341-23.266c1.132-2.358,2.1-4.676,2.944-6.938l0,0a67.1,67.1,0,0,0,4.063-31.988c-1.64-13.122-6.964-20.944-6.964-20.944" transform="translate(77.816 25.11)" fill="#efe9da"></path><path id="Path_140" data-name="Path 140" d="M265.738,288.474a14.429,14.429,0,1,1,20.405,0,14.428,14.428,0,0,1-20.405,0" transform="translate(86.365 87.134)" fill="#cd2d1a"></path><path id="Path_141" data-name="Path 141" d="M236.89,236.361c-.048-.059-.07-.107-.107-.143l-.07-.1h.177l50.8-.024,12.146-.007s17.018.059,33.174,16.216c0,0-34.951,15.465-60.65,8.19a41.292,41.292,0,0,1-4.452-1.535c-19.865-8.2-29.619-20.7-31.013-22.593" transform="translate(78.175 77.966)" fill="#cd2d1a"></path><path id="Path_142" data-name="Path 142" d="M252.91,321.972s-10.405-11.633-14.77-27.185l0,0q-.341-1.2-.626-2.426a84.9,84.9,0,0,1-1.434-13.016c-.1-1.981-.194-4.063-.256-6.195-.506-16.579.126-36.151.126-36.151.041.05.087.1.125.142.492.568.976,1.128,1.447,1.691l0,0A108.431,108.431,0,0,1,252.863,262.1c1.132,2.359,2.1,4.676,2.944,6.939l0,0a67.092,67.092,0,0,1,4.063,31.988c-1.64,13.122-6.964,20.944-6.964,20.944" transform="translate(77.815 78.267)" fill="#cd2d1a"></path><path id="Path_143" data-name="Path 143" d="M117.579,288.51a14.428,14.428,0,1,0-20.4,0,14.428,14.428,0,0,0,20.4,0" transform="translate(30.696 87.147)" fill="#ffbf1e"></path><path id="Path_144" data-name="Path 144" d="M163.169,236.4c.048-.058.071-.106.106-.142l.07-.105h-.177l-50.8-.024-12.147-.006s-17.018.06-33.174,16.216c0,0,34.951,15.465,60.65,8.19a41.3,41.3,0,0,0,4.452-1.535c19.865-8.2,29.62-20.7,31.014-22.593" transform="translate(22.144 77.978)" fill="#ffbf1e"></path><path id="Path_145" data-name="Path 145" d="M129.383,322.007s10.4-11.633,14.768-27.185l0,0q.341-1.2.627-2.427a84.884,84.884,0,0,0,1.434-13.016c.105-1.981.194-4.062.257-6.195.505-16.579-.126-36.151-.126-36.151-.04.05-.088.1-.125.142-.492.568-.976,1.128-1.447,1.691l0,0a108.425,108.425,0,0,0-15.342,23.266c-1.132,2.359-2.1,4.676-2.944,6.939l0,0a67.1,67.1,0,0,0-4.063,31.989c1.64,13.122,6.965,20.943,6.965,20.943" transform="translate(40.27 78.28)" fill="#ffbf1e"></path><path id="Path_146" data-name="Path 146" d="M117.553,95.568a14.428,14.428,0,1,1-20.4,0,14.428,14.428,0,0,1,20.4,0" transform="translate(30.688 30.165)" fill="#3bb5b0"></path><path id="Path_147" data-name="Path 147" d="M163.143,147.059c.048.059.071.106.106.142l.071.105h-.177l-50.8.024-12.147.007s-17.018-.06-33.174-16.216c0,0,34.951-15.465,60.65-8.19a41.226,41.226,0,0,1,4.452,1.535c19.865,8.2,29.619,20.7,31.013,22.593" transform="translate(22.136 39.955)" fill="#3bb5b0"></path><path id="Path_148" data-name="Path 148" d="M129.356,76s10.405,11.633,14.77,27.185l0,0q.341,1.2.626,2.426a84.864,84.864,0,0,1,1.434,13.016c.105,1.981.194,4.063.257,6.195.505,16.579-.126,36.151-.126,36.151-.041-.051-.088-.1-.125-.142-.492-.568-.976-1.128-1.447-1.691l0,0A108.416,108.416,0,0,1,129.4,135.878c-1.132-2.359-2.1-4.676-2.944-6.939l0,0a67.1,67.1,0,0,1-4.063-31.988C124.032,83.825,129.356,76,129.356,76" transform="translate(40.262 25.099)" fill="#3bb5b0"></path></g></svg> 