<svg height="501" viewBox="0 0 501 501" width="501" xmlns="http://www.w3.org/2000/svg"><path d="m203.091 330.97v19.768a11.927 11.927 0 0 1 -3.539 8.46 12.059 12.059 0 0 1 -20.566-8.46v-19.808q6.185.4 12.451.4c3.9 0 7.8-.119 11.653-.359" fill="#236f72" transform="translate(59.111 109.288)"/><path d="m203.091 33.772v19.768c-3.858-.239-7.756-.359-11.653-.359q-6.265 0-12.451.4v-19.809a12.059 12.059 0 0 1 20.566-8.46 11.926 11.926 0 0 1 3.539 8.46" fill="#236f72" transform="translate(59.111 7.198)"/><path d="m53.643 203.494h-19.874a11.972 11.972 0 1 1 0-23.944h19.831q-.359 5.806-.359 11.653 0 6.166.4 12.292" fill="#236f72" transform="translate(7.199 59.297)"/><path d="m362.693 191.522a11.99 11.99 0 0 1 -11.972 11.972h-19.754q.4-6.126.4-12.292 0-5.847-.359-11.653h19.714a12.007 12.007 0 0 1 11.972 11.972" fill="#236f72" transform="translate(109.302 59.297)"/><path d="m262.033 247.113v-22.747c0-.359.386-.652.865-.652h162.316q-.459-7.523-1.49-14.925h-121.851a.891.891 0 0 1 -.891-.891v-22.242a.891.891 0 0 1 .891-.891h116.89a190.7 190.7 0 0 0 -109.294-124.525 186.992 186.992 0 0 0 -23.469-8.155v155.815a.894.894 0 0 1 -.9.891l-22.122.013a.9.9 0 0 1 -.891-.9l-.028-160.754q-7.4-1.038-14.925-1.49v123.035a.891.891 0 0 1 -.891.891h-22.389a.9.9 0 0 1 -.9-.891v-122.995q-7.642.5-15.192 1.61a.911.911 0 0 1 .506.811v159.79a.894.894 0 0 1 -.9.891h-22.251a.891.891 0 0 1 -.891-.891v-155.111a.825.825 0 0 1 .226-.585 190.644 190.644 0 0 0 -124.166 109.2 186 186 0 0 0 -8.141 23.346h116.1a.9.9 0 0 1 .9.891v22.248a.9.9 0 0 1 -.9.891h-121.045q-1.038 7.4-1.49 14.925h161.676c.479 0 .865.293.865.638v22.666c0 .359-.386.639-.865.639h-148.935a9.738 9.738 0 0 1 -1.077.053h-11.627q.459 7.4 1.5 14.686h121.109a.8.8 0 0 1 .8.8v22.428a.792.792 0 0 1 -.8.8h-116.104a190.286 190.286 0 0 0 131.881 132.12v-155.483a.667.667 0 0 1 .652-.678h22.8a.6.6 0 0 1 .466.2.7.7 0 0 1 .186.479l.027 160.535c4.855.7 9.764 1.224 14.686 1.543v-122.691a.8.8 0 0 1 .811-.8h22.574a.8.8 0 0 1 .8.8v122.729q7.5-.439 14.9-1.49l.013-160.428a.929.929 0 0 1 .2-.6.538.538 0 0 1 .452-.253h22.654c.359 0 .652.386.652.865v155.48a187 187 0 0 0 23.466-8.154 190.17 190.17 0 0 0 109.184-124.178h-116.9a.792.792 0 0 1 -.8-.8v-22.422a.8.8 0 0 1 .8-.8h121.915q1.038-7.263 1.5-14.646h-162.271c-.479 0-.865-.279-.865-.638m-14.915 38.548a.8.8 0 0 1 -.8.8h-22.546a.8.8 0 0 1 -.8-.8v-22.482a.8.8 0 0 1 .8-.8h22.548a.8.8 0 0 1 .8.8zm0-38.75a.8.8 0 0 1 -.8.8h-22.546a.8.8 0 0 1 -.8-.8v-22.414a.8.8 0 0 1 .8-.8h22.548a.8.8 0 0 1 .8.8zm0-38.87a.8.8 0 0 1 -.8.8h-22.585a.8.8 0 0 1 -.8-.8v-22.535a.8.8 0 0 1 .8-.8h22.588a.8.8 0 0 1 .8.8z" fill="#450e09" transform="translate(15.095 15.079)"/><path d="m201.775 371.084a11 11 0 1 0 -11 11 11 11 0 0 0 11-11" fill="#3bb5b0" transform="translate(59.372 118.919)"/><path d="m201.775 11a11 11 0 1 1 -11-11 11 11 0 0 1 11 11" fill="#3bb5b0" transform="translate(59.372)"/><path d="m11 202.267a11 11 0 1 0 -11-11 11 11 0 0 0 11 11" fill="#3bb5b0" transform="translate(0 59.533)"/><path d="m371.084 202.267a11 11 0 1 1 11-11 11 11 0 0 1 -11 11" fill="#3bb5b0" transform="translate(118.919 59.533)"/><g fill="#236f72"><path d="m231.064 342.563a11 11 0 1 0 -11 11 11 11 0 0 0 11-11" transform="translate(69.046 109.499)"/><path d="m172.552 40.345a11 11 0 1 1 -11-11 11 11 0 0 1 11 11" transform="translate(49.722 9.692)"/><path d="m39.518 231.34a11 11 0 1 0 -11-11 11 11 0 0 0 11 11" transform="translate(9.419 69.136)"/><path d="m341.736 172.957a11 11 0 1 1 11-11 11 11 0 0 1 -11 11" transform="translate(109.227 49.856)"/><path d="m172.552 341.738a11 11 0 1 0 -11 11 11 11 0 0 0 11-11" transform="translate(49.722 109.226)"/><path d="m231.064 39.518a11 11 0 1 1 -11-11 11 11 0 0 1 11 11" transform="translate(69.046 9.42)"/><path d="m40.344 172.957a11 11 0 1 0 -11-11 11 11 0 0 0 11 11" transform="translate(9.692 49.856)"/><path d="m342.563 231.34a11 11 0 1 1 11-11 11 11 0 0 1 -11 11" transform="translate(109.5 69.136)"/></g><path d="m265.741 95.6a14.428 14.428 0 1 0 20.4 0 14.428 14.428 0 0 0 -20.4 0" fill="#efe9da" transform="translate(86.366 30.175)"/><path d="m236.893 147.088c-.048.059-.071.106-.107.142l-.071.105h.177l50.8.024 12.147.007s17.018-.06 33.174-16.216c0 0-34.951-15.466-60.65-8.19a41.255 41.255 0 0 0 -4.452 1.535c-19.865 8.2-29.62 20.7-31.013 22.593" fill="#efe9da" transform="translate(78.176 39.964)"/><path d="m252.913 76.033s-10.406 11.633-14.77 27.185q-.341 1.2-.627 2.426a84.848 84.848 0 0 0 -1.434 13.016c-.105 1.981-.194 4.063-.257 6.2-.506 16.579.126 36.151.126 36.151.041-.051.088-.1.125-.142.492-.568.976-1.128 1.447-1.691a108.415 108.415 0 0 0 15.341-23.266c1.132-2.358 2.1-4.676 2.944-6.938a67.1 67.1 0 0 0 4.063-31.988c-1.64-13.122-6.964-20.944-6.964-20.944" fill="#efe9da" transform="translate(77.816 25.11)"/><path d="m265.738 288.474a14.429 14.429 0 1 1 20.405 0 14.428 14.428 0 0 1 -20.405 0" fill="#cd2d1a" transform="translate(86.365 87.134)"/><path d="m236.89 236.361c-.048-.059-.07-.107-.107-.143l-.07-.1h.177l50.8-.024 12.146-.007s17.018.059 33.174 16.216c0 0-34.951 15.465-60.65 8.19a41.292 41.292 0 0 1 -4.452-1.535c-19.865-8.2-29.619-20.7-31.013-22.593" fill="#cd2d1a" transform="translate(78.175 77.966)"/><path d="m252.91 321.972s-10.405-11.633-14.77-27.185q-.341-1.2-.626-2.426a84.9 84.9 0 0 1 -1.434-13.016c-.1-1.981-.194-4.063-.256-6.195-.506-16.579.126-36.151.126-36.151.041.05.087.1.125.142.492.568.976 1.128 1.447 1.691a108.431 108.431 0 0 1 15.341 23.268c1.132 2.359 2.1 4.676 2.944 6.939a67.092 67.092 0 0 1 4.063 31.988c-1.64 13.122-6.964 20.944-6.964 20.944" fill="#cd2d1a" transform="translate(77.815 78.267)"/><path d="m117.579 288.51a14.428 14.428 0 1 0 -20.4 0 14.428 14.428 0 0 0 20.4 0" fill="#ffbf1e" transform="translate(30.696 87.147)"/><path d="m163.169 236.4c.048-.058.071-.106.106-.142l.07-.105h-.177l-50.8-.024-12.147-.006s-17.018.06-33.174 16.216c0 0 34.951 15.465 60.65 8.19a41.3 41.3 0 0 0 4.452-1.535c19.865-8.2 29.62-20.7 31.014-22.593" fill="#ffbf1e" transform="translate(22.144 77.978)"/><path d="m129.383 322.007s10.4-11.633 14.768-27.185q.341-1.2.627-2.427a84.884 84.884 0 0 0 1.434-13.016c.105-1.981.194-4.062.257-6.195.505-16.579-.126-36.151-.126-36.151-.04.05-.088.1-.125.142-.492.568-.976 1.128-1.447 1.691a108.425 108.425 0 0 0 -15.342 23.266c-1.132 2.359-2.1 4.676-2.944 6.939a67.1 67.1 0 0 0 -4.063 31.989c1.64 13.122 6.965 20.943 6.965 20.943" fill="#ffbf1e" transform="translate(40.27 78.28)"/><path d="m117.553 95.568a14.428 14.428 0 1 1 -20.4 0 14.428 14.428 0 0 1 20.4 0" fill="#3bb5b0" transform="translate(30.688 30.165)"/><path d="m163.143 147.059c.048.059.071.106.106.142l.071.105h-.177l-50.8.024-12.147.007s-17.018-.06-33.174-16.216c0 0 34.951-15.465 60.65-8.19a41.226 41.226 0 0 1 4.452 1.535c19.865 8.2 29.619 20.7 31.013 22.593" fill="#3bb5b0" transform="translate(22.136 39.955)"/><path d="m129.356 76s10.405 11.633 14.77 27.185q.341 1.2.626 2.426a84.864 84.864 0 0 1 1.434 13.016c.105 1.981.194 4.063.257 6.195.505 16.579-.126 36.151-.126 36.151-.041-.051-.088-.1-.125-.142-.492-.568-.976-1.128-1.447-1.691a108.416 108.416 0 0 1 -15.345-23.262c-1.132-2.359-2.1-4.676-2.944-6.939a67.1 67.1 0 0 1 -4.063-31.988c1.639-13.126 6.963-20.951 6.963-20.951" fill="#3bb5b0" transform="translate(40.262 25.099)"/></svg>