<svg width="250" height="48" viewBox="0 0 250 48" fill="none" xmlns="http://www.w3.org/2000/svg">
<g clip-path="url(#clip0_7867_38552)">
<path d="M48.3935 32.8966L47.3633 28.0553L48.6716 27.5813C49.4805 29.3636 51.0606 31.6136 53.9552 31.6136C55.7628 31.6136 57.5956 30.615 57.5956 28.2765C57.5956 23.8271 48.1659 24.7688 48.1659 19.1249C48.1659 15.7879 50.7256 14.1194 53.6708 14.1194C55.6427 14.1194 56.755 14.9789 57.1216 15.4277L57.4566 14.5365H58.5689L59.6813 18.9037L58.373 19.3778C57.5956 17.684 55.984 15.8195 53.6455 15.8195C51.6167 15.8195 50.6687 17.014 50.6687 18.5182C50.6687 22.5505 60.0984 21.5203 60.0984 27.6382C60.0984 31.7526 56.597 33.3137 53.8162 33.3137C52.2045 33.3137 50.9215 32.7828 49.8092 32.037L49.4742 32.8966H48.3871H48.3935Z" fill="#F76900"/>
<path d="M64.8825 39.0146C63.9914 39.4064 63.2393 39.0146 63.0496 38.3447L65.8558 32.8967L61.6276 23.4986C61.2926 22.7465 61.1283 22.5506 59.9844 22.2725V21.217H65.0721V22.2725L63.7069 22.6075L66.9049 29.7556L70.0461 22.5822L68.7378 22.2788V21.2234H72.9912V22.2788C72.296 22.4432 71.7651 22.696 71.4049 23.4733L66.9808 33.1811L64.8699 39.0209L64.8825 39.0146Z" fill="#F76900"/>
<path d="M81.0747 23.8838C80.961 23.4667 80.5185 23.0495 79.9624 23.0495C79.1028 23.0495 78.2117 23.8016 77.6239 24.5221V31.5059L79.0144 31.8409V32.8963H74.2869V31.8409L75.3992 31.5628V23.5804L74.0088 23.1886V22.2153C75.3739 21.9941 76.0376 21.5453 76.6506 20.6289L77.6239 20.7932L77.4849 23.296C78.1232 22.1837 79.185 20.7932 80.8472 20.7932C81.6562 20.7932 82.5157 21.2925 82.5157 22.3227C82.5157 23.296 81.7952 23.8775 81.0684 23.8775" fill="#F76900"/>
<path d="M93.5067 31.4743L93.7848 32.0052C93.7027 32.2011 92.9253 33.2313 91.6423 33.2313C90.3593 33.2313 89.86 32.5108 89.8347 31.784C89.1964 32.7573 87.945 33.3135 86.4408 33.3135C84.1023 33.3135 83.0469 31.784 83.0469 30.5326C83.0469 28.586 84.2667 27.499 86.4408 27.1134L89.7778 26.5004V23.9976C89.7778 22.999 89.0826 22.2469 87.9956 22.2469C86.9085 22.2469 86.4092 22.6893 85.9668 23.1949C86.327 24.8887 84.7976 25.7546 83.3818 24.9772C83.4387 22.4491 85.9162 20.8059 88.2484 20.8059C90.9724 20.8059 92.0025 22.3923 92.0025 24.4463V30.9245C92.0025 31.3669 92.2806 31.7019 92.6978 31.7019C93.0896 31.7019 93.393 31.5628 93.5067 31.4807M89.7778 29.8627V27.8339L87.0539 28.3648C86.3334 28.5039 85.1894 28.921 85.1894 30.1724C85.1894 31.0635 85.8277 31.8409 87.0791 31.8409C88.4127 31.8409 89.4176 30.9498 89.7778 29.869" fill="#F76900"/>
<path d="M104.516 23.0245C104.516 23.8588 103.707 24.3581 102.93 24.3897C102.487 23.2773 101.735 22.5252 100.263 22.5252C98.177 22.5252 96.5338 24.2759 96.5338 27.2527C96.5338 29.7302 98.1202 31.3418 100.263 31.3418C101.874 31.3418 103.044 30.5897 103.853 29.5595L104.44 29.9198C104.023 31.7274 102.355 33.3137 99.4031 33.3137C96.6476 33.3137 94.2017 31.3924 94.2017 27.8089C94.2017 23.3847 97.7599 20.7998 101.015 20.7998C102.683 20.7998 104.516 21.495 104.516 23.0245Z" fill="#F76900"/>
<path d="M106.936 22.6075L105.546 22.2725V21.217H109.161V29.4775C109.161 30.672 109.742 31.3103 110.83 31.3103C111.664 31.3103 113.168 30.9501 114.584 29.6987V22.6075L113.193 22.2725V21.217H116.808V30.8679H118.199V31.9234C117.282 32.1446 116.309 32.5364 115.557 33.1495L114.584 32.9852L114.723 30.9817C113.332 32.3152 111.746 33.3201 110.021 33.3201C108.295 33.3201 106.936 32.1256 106.936 30.5645V22.6138V22.6075Z" fill="#F76900"/>
<path d="M120.563 32.8966H119.868L119.312 29.5026L120.146 29.3067C120.816 30.6971 122.175 31.9738 123.9 31.9738C125.429 31.9738 126.042 30.9436 126.042 30.1915C126.042 27.6066 119.729 28.049 119.729 24.1305C119.729 22.2977 121.315 20.7935 123.344 20.7935C124.513 20.7935 125.461 21.1853 125.96 21.5708L126.074 21.2106H126.934L127.465 24.1874L126.63 24.3833C126.27 23.5743 125.354 22.1333 123.597 22.1333C122.37 22.1333 121.846 22.8854 121.846 23.549C121.846 25.9128 128.103 25.3313 128.103 29.4457C128.103 31.7526 126.099 33.3137 123.875 33.3137C122.68 33.3137 121.315 32.6437 120.841 32.037L120.563 32.8966Z" fill="#F76900"/>
<path d="M131.799 27.4991C131.913 29.6417 133.329 31.3355 135.276 31.3355C136.976 31.3355 138.139 30.5834 139.004 29.3067L139.586 29.667C139.112 31.8095 137.304 33.3074 134.606 33.3074C131.907 33.3074 129.486 31.3355 129.486 27.7456C129.486 22.8791 132.406 20.7935 135.105 20.7935C137.639 20.7935 139.75 22.2977 139.75 25.8559L139.308 26.5258L131.799 27.4991ZM131.856 26.0518L137.279 25.3313C137.279 23.1319 136.167 22.2155 134.998 22.2155C132.912 22.2155 131.939 23.9662 131.856 26.0518Z" fill="#F76900"/>
<path d="M161.808 26.2479C161.808 30.811 159.141 33.4528 154.496 33.4528C149.85 33.4528 147.183 30.811 147.183 26.2479V16.0661L145.736 15.7627V14.5366H151.241V15.7627L149.793 16.0661V25.8813C149.793 29.4143 151.266 31.5568 154.995 31.5568C157.972 31.5568 159.918 29.528 159.918 26.0519V16.0661L158.471 15.7627V14.5366H163.255V15.7627L161.808 16.0661V26.2479Z" fill="#F76900"/>
<path d="M163.844 32.8963V31.8409L164.956 31.5628V23.5804L163.565 23.1886V22.2153C164.931 21.9941 165.594 21.5453 166.207 20.6289L167.181 20.7932L167.042 23.1317C168.432 21.7981 170.018 20.7932 171.744 20.7932C173.469 20.7932 174.828 21.9877 174.828 23.5488V31.4996L176.218 31.8345V32.89H171.491V31.8345L172.603 31.5565V24.6296C172.603 23.4351 172.022 22.7967 170.935 22.7967C170.1 22.7967 168.596 23.157 167.181 24.4084V31.4996L168.571 31.8345V32.89H163.844V32.8963Z" fill="#F76900"/>
<path d="M177.748 32.8965V31.841L178.999 31.5377V23.5869L177.609 23.1951V22.2218C178.974 22.0006 179.638 21.5518 180.251 20.6354L181.224 20.7997V31.5314L182.475 31.8347V32.8902H177.748V32.8965ZM180.251 15.9585C181.028 15.9585 181.641 16.5716 181.641 17.3489C181.641 18.1263 181.028 18.7394 180.251 18.7394C179.473 18.7394 178.86 18.1263 178.86 17.3489C178.86 16.5716 179.473 15.9585 180.251 15.9585Z" fill="#F76900"/>
<path d="M182.779 21.217H187.866V22.2725L186.501 22.6075L189.699 29.7556L192.84 22.5822L191.532 22.2788V21.2234H195.786V22.2788C195.09 22.4432 194.56 22.696 194.199 23.4733L189.775 33.1811H188.777L184.409 23.5049C184.049 22.7528 183.91 22.5569 182.766 22.2788V21.2234L182.779 21.217Z" fill="#F76900"/>
<path d="M197.991 27.4991C198.105 29.6417 199.52 31.3355 201.467 31.3355C203.161 31.3355 204.33 30.5834 205.196 29.3067L205.777 29.667C205.303 31.8095 203.496 33.3074 200.797 33.3074C198.098 33.3074 195.678 31.3355 195.678 27.7456C195.678 22.8791 198.598 20.7935 201.296 20.7935C203.824 20.7935 205.942 22.2977 205.942 25.8559L205.499 26.5258L197.991 27.4991ZM198.048 26.0518L203.47 25.3313C203.47 23.1319 202.358 22.2155 201.189 22.2155C199.103 22.2155 198.13 23.9662 198.048 26.0518Z" fill="#F76900"/>
<path d="M214.095 23.8838C213.981 23.4667 213.539 23.0495 212.982 23.0495C212.123 23.0495 211.232 23.8016 210.644 24.5221V31.5059L212.034 31.8409V32.8963H207.307V31.8409L208.419 31.5628V23.5804L207.029 23.1886V22.2153C208.394 21.9941 209.058 21.5453 209.671 20.6289L210.644 20.7932L210.505 23.296C211.143 22.1837 212.199 20.7932 213.867 20.7932C214.676 20.7932 215.536 21.2925 215.536 22.3227C215.536 23.296 214.815 23.8775 214.088 23.8775" fill="#F76900"/>
<path d="M217.325 32.8966H216.629L216.073 29.5026L216.908 29.3067C217.577 30.6971 218.936 31.9738 220.662 31.9738C222.191 31.9738 222.804 30.9436 222.804 30.1915C222.804 27.6066 216.49 28.049 216.49 24.1305C216.49 22.2977 218.077 20.7935 220.106 20.7935C221.275 20.7935 222.223 21.1853 222.722 21.5708L222.836 21.2106H223.695L224.226 24.1874L223.392 24.3833C223.032 23.5743 222.115 22.1333 220.358 22.1333C219.132 22.1333 218.608 22.8854 218.608 23.549C218.608 25.9128 224.865 25.3313 224.865 29.4457C224.865 31.7526 222.861 33.3137 220.636 33.3137C219.442 33.3137 218.077 32.6437 217.603 32.037L217.325 32.8966Z" fill="#F76900"/>
<path d="M226.248 32.8965V31.841L227.5 31.5377V23.5869L226.109 23.1951V22.2218C227.475 22.0006 228.138 21.5518 228.751 20.6354L229.725 20.7997V31.5314L230.976 31.8347V32.8902H226.248V32.8965ZM228.751 15.9585C229.529 15.9585 230.142 16.5716 230.142 17.3489C230.142 18.1263 229.529 18.7394 228.751 18.7394C227.974 18.7394 227.361 18.1263 227.361 17.3489C227.361 16.5716 227.974 15.9585 228.751 15.9585Z" fill="#F76900"/>
<path d="M233.34 30.8361V22.601H231.532V21.5455C233.062 21.2674 234.067 19.877 234.591 18.3728L235.564 18.5371V21.2042H238.623V22.5947H235.564V30.3558C235.564 31.2154 235.956 31.6894 236.677 31.6894C237.208 31.6894 237.707 31.3544 237.985 31.0194L238.567 31.4618C238.263 32.353 237.258 33.2947 235.925 33.2947C234.452 33.2947 233.34 32.4351 233.34 30.8172" fill="#F76900"/>
<mask id="mask0_7867_38552" style="mask-type:luminance" maskUnits="userSpaceOnUse" x="0" y="0" width="250" height="48">
<path d="M250 0H0V47.2874H250V0Z" fill="white"/>
</mask>
<g mask="url(#mask0_7867_38552)">
<path d="M241.878 39.0146C240.987 39.4064 240.235 39.0146 240.046 38.3447L242.852 32.8967L238.624 23.4986C238.289 22.7465 237.625 22.6075 236.841 22.6075H234.478V21.217H242.068V22.2725L240.709 22.6075L243.907 29.7556L247.048 22.5822L245.74 22.2788V21.2234H249.994V22.2788C249.298 22.4432 248.767 22.696 248.407 23.4733L243.983 33.1811L241.866 39.0209L241.878 39.0146Z" fill="#F76900"/>
<path d="M22.6451 14.9788C23.2518 14.9788 33.7433 14.9788 34.35 14.9788V6.44656C34.1541 6.26327 27.8087 0.176964 27.6317 0H6.50344C6.32015 0.183284 0.183284 6.26327 0 6.44656V22.0889C0.183284 22.2722 6.05471 28.2195 6.23799 28.4028H22.6451V37.4785H11.7997V32.3086C11.193 32.3086 0.600415 32.3086 0 32.3086V40.8408C0.183284 41.0241 6.32015 47.1041 6.50344 47.2874H27.6317C27.815 47.1104 34.1604 41.0241 34.35 40.8345V25.1921C34.1668 25.0089 28.2953 19.0616 28.112 18.8783H11.806V9.80888H22.6514V14.9788H22.6451Z" fill="#F76900"/>
</g>
</g>
<defs>
<clipPath id="clip0_7867_38552">
<rect width="250" height="47.2874" fill="white"/>
</clipPath>
</defs>
</svg>
